<?xml version="1.0" encoding="UTF-8"?>
<svg version="1.1" xmlns="http://www.w3.org/2000/svg" width="1200" height="630">
<path d="M0 0 C396 0 792 0 1200 0 C1200 207.9 1200 415.8 1200 630 C804 630 408 630 0 630 C0 422.1 0 214.2 0 0 Z " fill="#F6F6F6" transform="translate(0,0)"/>
<path d="M0 0 C0 -1.98 0 -3.96 0 -6 C5.61 -6 11.22 -6 17 -6 C17 23.37 17 52.74 17 83 C7.17295701 81.90810633 7.17295701 81.90810633 3.625 79.0625 C1.45470484 77.59200509 1.45470484 77.59200509 -1 77 C-4.0741538 78.05550345 -6.44975811 79.48545113 -9.12890625 81.31640625 C-18.02201074 86.53127432 -30.36950674 86.41108442 -40.23046875 84.3125 C-53.6945849 79.75483022 -63.6786213 70.60444602 -70 58 C-74.70243265 48.06478515 -74.68027764 33.97398922 -71.875 23.4375 C-67.01241351 10.43290821 -58.29855126 1.22686901 -46 -5 C-44.99066406 -5.51240234 -44.99066406 -5.51240234 -43.9609375 -6.03515625 C-29.96927206 -11.84250774 -12.23627047 -7.96780403 0 0 Z " fill="#05818E" transform="translate(946,373)"/>
<path d="M0 0 C0.20753906 0.94359375 0.41507812 1.8871875 0.62890625 2.859375 C4.18010551 18.01644892 11.08313337 30.59182062 24.23046875 39.36328125 C32.72188282 44.38147941 40.16045305 46.21099146 50 48 C50 91.23 50 134.46 50 179 C48.35 179 46.7 179 45 179 C44.79246094 177.89527344 44.58492188 176.79054688 44.37109375 175.65234375 C36.56618142 135.61449745 20.45685595 100.72057023 -9.625 72.6875 C-10.15134033 72.19564209 -10.67768066 71.70378418 -11.2199707 71.19702148 C-13.98414261 68.66853749 -16.66004225 66.58902871 -19.86328125 64.640625 C-22.88583111 62.52190965 -22.9579688 62.20710709 -23.75390625 58.28515625 C-23.72917028 56.87637603 -23.66330366 55.46788685 -23.5625 54.0625 C-23.53317383 53.31395752 -23.50384766 52.56541504 -23.47363281 51.79418945 C-22.59751851 33.51790229 -18.7262197 16.73092126 -6 3 C-2.5 0 -2.5 0 0 0 Z " fill="#05828E" transform="translate(259,279)"/>
<path d="M0 0 C9.59716014 4.37949011 14.39624916 13.54611268 18.19140625 22.953125 C20.64116305 29.85945044 22.25081599 36.71248278 23 44 C23.07863281 44.67289062 23.15726562 45.34578125 23.23828125 46.0390625 C24.57763022 58.70612566 24.57763022 58.70612566 21.046875 63.83984375 C18.48278955 66.14044189 15.85559047 68.07709879 13 70 C11.66807541 71.10193382 10.35392732 72.22587132 9.0625 73.375 C8.42054688 73.93960938 7.77859375 74.50421875 7.1171875 75.0859375 C-22.03794979 101.44390295 -39.19308311 139.43167138 -45 178 C-46.65 178.33 -48.3 178.66 -50 179 C-50 135.77 -50 92.54 -50 48 C-44.72 46.68 -39.44 45.36 -34 44 C-19.96119266 37.61872394 -9.4614276 28.46199567 -3.78515625 13.87890625 C-2.20683985 9.28999345 -0.87851627 4.77530133 0 0 Z " fill="#04818E" transform="translate(366,279)"/>
<path d="M0 0 C6.6 0 13.2 0 20 0 C20 11.22 20 22.44 20 34 C24.29 32.68 28.58 31.36 33 30 C46.94772951 28.3383099 59.13452065 31.57431003 70.4246521 39.75738525 C75.7654057 44.40811721 78.5336652 50.69925067 79.51678467 57.65783691 C79.69040861 61.72977934 79.67764189 65.75573934 79.5859375 69.828125 C79.57471626 71.31311306 79.56618995 72.79812367 79.56021118 74.28314209 C79.53754179 78.15028607 79.47881717 82.01603023 79.4119873 85.88262939 C79.35008415 89.84473749 79.32309486 93.80707669 79.29296875 97.76953125 C79.22904451 105.51365198 79.12694209 113.25662824 79 121 C76.4149133 121.13526616 73.83691248 121.23417653 71.25 121.3125 C70.52039063 121.35439453 69.79078125 121.39628906 69.0390625 121.43945312 C65.25326599 121.52549395 63.41427946 121.35926101 60.51353455 118.84375 C58.81449278 115.65145417 58.51124748 113.78390189 58.53344727 110.1875 C58.52807701 108.47046875 58.52807701 108.47046875 58.52259827 106.71875 C58.5370549 105.4915625 58.55151154 104.264375 58.56640625 103 C58.55680231 100.39583273 58.54703159 97.79166607 58.53710938 95.1875 C58.54094504 91.77112162 58.55511949 88.35480446 58.57373047 84.93847656 C58.59856322 80.29199218 58.58704704 75.6465563 58.56640625 71 C58.58288712 69.7728125 58.59936798 68.545625 58.61634827 67.28125 C58.82572625 60.44883764 58.82572625 60.44883764 55.60766602 54.76831055 C50.31611193 51.18000175 45.94855027 50.65986211 39.625 50.6875 C38.89539063 50.67138672 38.16578125 50.65527344 37.4140625 50.63867188 C32.21889196 50.63403333 28.5435009 51.41257207 24 54 C21.15541024 57.78347153 20.6153262 60.57496671 20.56762695 65.2590332 C20.54783279 66.49994217 20.52803864 67.74085114 20.50764465 69.0193634 C20.50087598 70.36316781 20.49442899 71.70697386 20.48828125 73.05078125 C20.47142532 74.43370654 20.45327384 75.81661659 20.43388367 77.19950867 C20.3864761 80.82767984 20.3566074 84.45578922 20.33044434 88.08416748 C20.30059181 91.79126179 20.25407771 95.49814342 20.20898438 99.20507812 C20.12305644 106.46996455 20.05720614 113.73482023 20 121 C13.4 121 6.8 121 0 121 C0 81.07 0 41.14 0 0 Z " fill="#05828F" transform="translate(478,335)"/>
<path d="M0 0 C6.27 0 12.54 0 19 0 C19 11.22 19 22.44 19 34 C23.95 32.68 28.9 31.36 34 30 C46.93568414 29.15374029 58.50313917 30.97298878 69 39 C75.37131889 44.69812293 78.58339787 50.73189804 79.2624054 59.31822205 C79.3460786 63.24687761 79.3381029 67.16895934 79.29296875 71.09765625 C79.2873626 72.54210466 79.28309733 73.98655883 79.28010559 75.43101501 C79.26873682 79.20401188 79.23934013 82.97665364 79.20599365 86.74951172 C79.17511923 90.61095376 79.16156341 94.47245406 79.14648438 98.33398438 C79.11446122 105.88948353 79.06336361 113.44469171 79 121 C76.41554227 121.1081866 73.83562648 121.18737237 71.25 121.25 C70.52039063 121.28351563 69.79078125 121.31703125 69.0390625 121.3515625 C65.66161387 121.41297066 63.53113057 121.40055995 60.78797913 119.33177185 C58.56479628 116.43243421 58.50111041 114.92630017 58.50170898 111.30102539 C58.49167343 110.15626236 58.48163788 109.01149933 58.47129822 107.83204651 C58.47948074 106.59969772 58.48766327 105.36734894 58.49609375 104.09765625 C58.48667252 102.8278038 58.47725128 101.55795135 58.46754456 100.24961853 C58.44370005 96.87622256 58.43524786 93.50361358 58.43664551 90.13018799 C58.43860774 85.38200538 58.42909375 80.63417664 58.39674377 75.88609314 C58.3799165 73.3597504 58.37710971 70.83326716 58.38975525 68.30690002 C58.38287186 67.15898483 58.37598846 66.01106964 58.36889648 64.82836914 C58.36985825 63.82117325 58.37082001 62.81397736 58.37181091 61.77626038 C57.93229046 58.49442228 56.97004896 56.64469301 55 54 C49.79259351 51.04827702 45.41087513 50.52983385 39.5 50.625 C38.77941406 50.61339844 38.05882812 50.60179687 37.31640625 50.58984375 C31.53078602 50.62123048 26.6869683 51.76085975 22.125 55.5625 C19.70569307 58.65383663 19.84935564 61.05975941 19.79467773 64.91845703 C19.77473251 66.15959259 19.75478729 67.40072815 19.73423767 68.67947388 C19.7172534 70.0389188 19.70037459 71.39836505 19.68359375 72.7578125 C19.66302419 74.14501567 19.64202772 75.53221257 19.62062073 76.91940308 C19.56540019 80.57227505 19.51599089 84.22520359 19.46777344 87.87817383 C19.41755825 91.60503174 19.36187229 95.33180741 19.30664062 99.05859375 C19.19905926 106.37232817 19.0981198 113.68613141 19 121 C12.73 121 6.46 121 0 121 C0 81.07 0 41.14 0 0 Z " fill="#05828F" transform="translate(779,335)"/>
<path d="M0 0 C1.50856567 0.01764404 1.50856567 0.01764404 3.04760742 0.03564453 C20.62981757 0.44231757 20.62981757 0.44231757 25.625 5.4375 C25.85205078 7.40869141 25.85205078 7.40869141 25.8203125 9.7890625 C25.81386719 10.63984375 25.80742187 11.490625 25.80078125 12.3671875 C25.78402344 13.25664062 25.76726562 14.14609375 25.75 15.0625 C25.74097656 15.9596875 25.73195313 16.856875 25.72265625 17.78125 C25.6990497 20.00026586 25.6661231 22.21875077 25.625 24.4375 C24.97273438 24.30472656 24.32046875 24.17195313 23.6484375 24.03515625 C22.77445312 23.85855469 21.90046875 23.68195313 21 23.5 C20.14148438 23.32597656 19.28296875 23.15195312 18.3984375 22.97265625 C17.48320312 22.79605469 16.56796875 22.61945313 15.625 22.4375 C14.71492188 22.25445312 13.80484375 22.07140625 12.8671875 21.8828125 C8.68735262 21.3087147 4.5889348 21.25339833 0.375 21.25 C-0.4396875 21.23775391 -1.254375 21.22550781 -2.09375 21.21289062 C-4.18883174 21.20768761 -6.28351996 21.3145943 -8.375 21.4375 C-10.53431527 23.2647323 -10.53431527 23.2647323 -11 25.75 C-10.658732 28.45999196 -10.658732 28.45999196 -8.88037109 29.65527344 C-3.86817584 32.70037654 1.21717949 35.12135906 6.625 37.375 C17.05663051 41.90307366 24.00213673 46.222956 29.625 56.4375 C31.75338262 62.82264787 31.55709715 70.10151965 28.9375 76.3125 C24.45182042 84.94120308 18.47009545 89.37916578 9.44140625 92.55859375 C4.86054179 93.6135523 0.62140401 93.78027331 -4.0625 93.75 C-4.94301025 93.74581055 -5.82352051 93.74162109 -6.73071289 93.73730469 C-14.89734822 93.59638432 -22.57137281 92.89867053 -29.5625 88.375 C-32.17446441 85.58290011 -32.49884329 84.02324778 -32.47265625 80.3046875 C-32.46943359 79.49902344 -32.46621094 78.69335938 -32.46289062 77.86328125 C-32.45451172 77.02152344 -32.44613281 76.17976563 -32.4375 75.3125 C-32.43298828 74.46300781 -32.42847656 73.61351562 -32.42382812 72.73828125 C-32.41202874 70.63799091 -32.39409306 68.5377367 -32.375 66.4375 C-30.96347656 66.96150391 -30.96347656 66.96150391 -29.5234375 67.49609375 C-28.26572526 67.95600345 -27.00790707 68.41562347 -25.75 68.875 C-24.52023437 69.32746094 -23.29046875 69.77992188 -22.0234375 70.24609375 C-15.87728631 72.25313456 -10.15232198 72.61944243 -3.75 72.625 C-2.99976563 72.63724609 -2.24953125 72.64949219 -1.4765625 72.66210938 C3.92872916 72.75053015 3.92872916 72.75053015 8.625 70.4375 C9.7966367 67.06989813 9.7966367 67.06989813 9.625 63.4375 C6.81759396 59.88872972 3.78152622 58.39603564 -0.35546875 56.703125 C-1.52013672 56.21070313 -2.68480469 55.71828125 -3.88476562 55.2109375 C-6.31440186 54.20450295 -8.74666212 53.20437719 -11.18164062 52.2109375 C-20.44726728 48.27419354 -29.67041252 43.30670736 -33.78125 33.5625 C-35.81184388 26.29511139 -34.63325833 20.27944134 -30.98046875 13.76171875 C-23.528151 2.97308357 -12.6030763 -0.28827472 0 0 Z " fill="#06828F" transform="translate(432.375,364.5625)"/>
<path d="M0 0 C2 2 2 2 2.22705078 3.97119141 C2.21657715 4.75671387 2.20610352 5.54223633 2.1953125 6.3515625 C2.18886719 7.20234375 2.18242188 8.053125 2.17578125 8.9296875 C2.15902344 9.81914062 2.14226563 10.70859375 2.125 11.625 C2.11597656 12.5221875 2.10695313 13.419375 2.09765625 14.34375 C2.0740497 16.56276586 2.0411231 18.78125077 2 21 C1.13761719 20.7834375 0.27523437 20.566875 -0.61328125 20.34375 C-8.24209032 18.60370485 -15.47611092 17.69945825 -23.3125 17.6875 C-24.55737183 17.67976563 -24.55737183 17.67976563 -25.82739258 17.671875 C-30.39139047 17.54087029 -30.39139047 17.54087029 -34 20 C-34.66743877 22.41344667 -34.66743877 22.41344667 -34 25 C-28.14559284 29.63879105 -21.06749461 32.16048303 -14.23046875 35.02539062 C-5.09417969 39.01703406 1.98976611 43.97314779 6.15234375 53.2578125 C8.45505833 60.70714722 7.84390169 68.07186584 4.25 74.97265625 C-0.50238397 82.68042901 -6.3546844 87.11497331 -15.17578125 89.6171875 C-27.38358037 91.27190993 -42.53620501 91.92610469 -53.125 84.9375 C-55.81086689 82.16210421 -56.12406242 80.61686381 -56.09765625 76.8671875 C-56.09443359 76.06152344 -56.09121094 75.25585938 -56.08789062 74.42578125 C-56.07951172 73.58402344 -56.07113281 72.74226563 -56.0625 71.875 C-56.05798828 71.02550781 -56.05347656 70.17601562 -56.04882812 69.30078125 C-56.03702874 67.20049091 -56.01909306 65.1002367 -56 63 C-55.38253906 63.26554687 -54.76507812 63.53109375 -54.12890625 63.8046875 C-45.08912796 67.57470158 -37.46165395 69.16848402 -27.6875 69.25 C-26.89794922 69.2593457 -26.10839844 69.26869141 -25.29492188 69.27832031 C-19.80821696 69.34985054 -19.80821696 69.34985054 -15 67 C-13.8283633 63.63239813 -13.8283633 63.63239813 -14 60 C-16.80740604 56.45122972 -19.84347378 54.95853564 -23.98046875 53.265625 C-25.14513672 52.77320313 -26.30980469 52.28078125 -27.50976562 51.7734375 C-29.93940186 50.76700295 -32.37166212 49.76687719 -34.80664062 48.7734375 C-43.84370416 44.93380456 -51.90313134 40.56279872 -56.5625 31.5625 C-58.64181975 25.94063548 -59.121057 21.07371777 -57.046875 15.38671875 C-52.73820561 6.18307369 -47.14448257 2.02977198 -38 -2 C-27.10959528 -5.63013491 -10.65682 -4.00549441 0 0 Z " fill="#06828F" transform="translate(757,368)"/>
<path d="M0 0 C2.15091376 1.10071977 4.07530753 2.3082159 6.04272461 3.71484375 C7.25424194 4.57311768 7.25424194 4.57311768 8.49023438 5.44873047 C9.3480249 6.06506348 10.20581543 6.68139648 11.08959961 7.31640625 C12.89514156 8.59828698 14.70113699 9.8795292 16.50756836 11.16015625 C17.40652832 11.79953125 18.30548828 12.43890625 19.23168945 13.09765625 C22.92790764 15.7108223 26.66250931 18.26589595 30.40209961 20.81640625 C36.63331342 25.07876202 42.76868342 29.45252966 48.83959961 33.94140625 C47.51959961 34.27140625 46.19959961 34.60140625 44.83959961 34.94140625 C44.83959961 40.55140625 44.83959961 46.16140625 44.83959961 51.94140625 C43.51959961 51.94140625 42.19959961 51.94140625 40.83959961 51.94140625 C40.83959961 46.33140625 40.83959961 40.72140625 40.83959961 34.94140625 C35.55959961 34.94140625 30.27959961 34.94140625 24.83959961 34.94140625 C24.83959961 41.21140625 24.83959961 47.48140625 24.83959961 53.94140625 C18.83959961 51.94140625 18.83959961 51.94140625 15.97241211 50.87109375 C0.12992693 45.31593661 -12.89022107 47.83333452 -28.16040039 53.94140625 C-28.16040039 47.34140625 -28.16040039 40.74140625 -28.16040039 33.94140625 C-35.75040039 33.94140625 -43.34040039 33.94140625 -51.16040039 33.94140625 C-47.82425388 30.60525974 -44.62968779 28.07850957 -40.73461914 25.52734375 C-40.10997269 25.11279938 -39.48532623 24.698255 -38.8417511 24.27114868 C-36.84666683 22.94850988 -34.84742399 21.63232169 -32.84790039 20.31640625 C-30.89740361 19.02612624 -28.94777173 17.7345486 -26.99832153 16.44268799 C-25.69816808 15.58288712 -24.39646862 14.72541945 -23.0932312 13.87030029 C-19.68815462 11.63349998 -16.31425227 9.36296317 -12.9753418 7.02832031 C-12.29679642 6.55947418 -11.61825104 6.09062805 -10.91914368 5.60757446 C-9.62140966 4.70917002 -8.3304631 3.80085733 -7.04753113 2.88143921 C-2.74889906 -0.07455484 -2.74889906 -0.07455484 0 0 Z " fill="#07828F" transform="translate(314.160400390625,171.05859375)"/>
<path d="M0 0 C6.6 0 13.2 0 20 0 C20 39.93 20 79.86 20 121 C13.4 121 6.8 121 0 121 C0 81.07 0 41.14 0 0 Z " fill="#04818E" transform="translate(616,335)"/>
<path d="M0 0 C8.05617474 3.7041289 13.0248266 9.57848295 16.31640625 17.73828125 C18.65152015 25.74063788 16.9060971 32.92495985 13.01171875 40.12109375 C8.75698277 46.70460534 3.31024109 49.68825297 -3.98828125 52.12109375 C-11.89568293 52.78094533 -18.36079205 52.72689473 -24.98828125 48.12109375 C-26.56609375 47.06921875 -26.56609375 47.06921875 -28.17578125 45.99609375 C-32.98931065 41.78754346 -36.35733899 34.33003766 -37.296875 28.0625 C-37.75075647 19.68632385 -34.78176991 12.44074862 -29.2421875 6.1328125 C-20.87566688 -1.37655902 -10.84027852 -3.18831721 0 0 Z " fill="#F4F5F6" transform="translate(928.98828125,385.87890625)"/>
<path d="M0 0 C0.89267578 0.00322266 1.78535156 0.00644531 2.70507812 0.00976562 C3.63384766 0.01814453 4.56261719 0.02652344 5.51953125 0.03515625 C6.93008789 0.04192383 6.93008789 0.04192383 8.36914062 0.04882812 C10.69016837 0.06060999 13.01106769 0.07706067 15.33203125 0.09765625 C13.9785356 2.97768991 12.43419061 5.46389789 10.53125 8.01171875 C9.97203857 8.76437012 9.41282715 9.51702148 8.83666992 10.29248047 C7.93718628 11.49541748 7.93718628 11.49541748 7.01953125 12.72265625 C5.75867881 14.42545867 4.49827358 16.12859229 3.23828125 17.83203125 C1.3009721 20.4454613 -0.63806626 23.05753199 -2.58203125 25.66601562 C-4.38962661 28.09568093 -6.18598818 30.53329609 -7.98046875 32.97265625 C-8.53710205 33.71467285 -9.09373535 34.45668945 -9.66723633 35.22119141 C-13.57314009 40.17448962 -13.57314009 40.17448962 -14.66796875 46.09765625 C-13.18591771 48.81268086 -11.3019447 51.13969395 -9.35546875 53.53515625 C-8.23812017 54.96370053 -7.12225939 56.39340963 -6.0078125 57.82421875 C-5.44433105 58.5399707 -4.88084961 59.25572266 -4.30029297 59.99316406 C-1.91485888 63.06861154 0.33990088 66.22947002 2.58203125 69.41015625 C3.38631341 70.54586008 4.19099349 71.68128223 4.99609375 72.81640625 C5.3818457 73.36039062 5.76759766 73.904375 6.16503906 74.46484375 C8.71558272 78.03347052 11.32743212 81.55783332 13.93359375 85.0859375 C15.33203125 87.09765625 15.33203125 87.09765625 15.33203125 88.09765625 C11.97816364 88.21484555 8.62482976 88.28523209 5.26953125 88.34765625 C4.32658203 88.38117188 3.38363281 88.4146875 2.41210938 88.44921875 C-3.56545681 88.53252978 -8.07972701 88.17020816 -12.66796875 84.09765625 C-14.79223784 81.70628919 -16.54276348 79.14581894 -18.29296875 76.47265625 C-19.32290153 74.95613583 -20.35420206 73.4405436 -21.38671875 71.92578125 C-21.9178125 71.13880859 -22.44890625 70.35183594 -22.99609375 69.54101562 C-25.84620079 65.37573068 -28.82311524 61.30298395 -31.79296875 57.22265625 C-32.87955386 55.72573029 -33.9655378 54.22836768 -35.05078125 52.73046875 C-35.50855957 52.10027832 -35.96633789 51.47008789 -36.43798828 50.82080078 C-39.66937716 46.29377761 -39.66937716 46.29377761 -39.65234375 43.921875 C-38.17825739 39.69265103 -35.59376262 36.46942344 -32.91796875 32.91015625 C-31.73517086 31.31026996 -30.55289487 29.70999772 -29.37109375 28.109375 C-28.76072266 27.28743652 -28.15035156 26.46549805 -27.52148438 25.61865234 C-25.68199574 23.11673458 -23.88032369 20.59185877 -22.08984375 18.0546875 C-21.51588867 17.24475342 -20.94193359 16.43481934 -20.35058594 15.6003418 C-19.25282326 14.04910693 -18.1595055 12.49471414 -17.07128906 10.93676758 C-12.43799157 4.43756866 -8.41853914 -0.05362127 0 0 Z " fill="#06828E" transform="translate(676.66796875,367.90234375)"/>
<path d="M0 0 C6.6 0 13.2 0 20 0 C20 29.37 20 58.74 20 89 C14.72 89 9.44 89 4 89 C-0.06925024 84.93074976 -0.45698699 84.44177428 -0.49768066 79.10810852 C-0.48329956 78.32767685 -0.46891846 77.54724518 -0.45410156 76.74316406 C-0.45497772 75.49870766 -0.45497772 75.49870766 -0.45587158 74.22911072 C-0.45308808 71.49085437 -0.42198411 68.75369083 -0.390625 66.015625 C-0.38316354 64.11562698 -0.37747016 62.21562126 -0.37347412 60.31561279 C-0.35821028 55.31771554 -0.31892193 50.32028414 -0.2746582 45.3225708 C-0.23372172 40.22162172 -0.21546657 35.12059729 -0.1953125 30.01953125 C-0.15242833 20.01278335 -0.08207227 10.00650332 0 0 Z " fill="#088390" transform="translate(577,367)"/>
<path d="M0 0 C0.23074219 1.0621875 0.46148437 2.124375 0.69921875 3.21875 C3.14337369 14.36313501 3.14337369 14.36313501 9 24 C9.55300781 24.68449219 10.10601562 25.36898438 10.67578125 26.07421875 C17.00420547 33.16257797 24.81882373 36.16376475 34 38 C34 43.61 34 49.22 34 55 C19.42637703 54.42472541 6.87269083 48.61310126 -3.1875 37.875 C-10.4535672 28.66001682 -16.5998666 17.997332 -16 6 C-14.54195831 5.18697675 -13.08355685 4.37459869 -11.625 3.5625 C-10.40683594 2.88380859 -10.40683594 2.88380859 -9.1640625 2.19140625 C-5.78102907 0.3289059 -3.87928248 -0.10208638 0 0 Z " fill="#F9B451" transform="translate(275,272)"/>
<path d="M0 0 C4.12695147 -0.28948041 6.61188128 0.51496121 10.25 2.4375 C11.55710937 3.11619141 11.55710937 3.11619141 12.890625 3.80859375 C15 5 15 5 16 6 C16.13959526 19.81993028 9.00636951 30.67409175 0.0625 40.625 C-8.67730758 49.09403902 -21.91027904 55 -34 55 C-34 49.39 -34 43.78 -34 38 C-32.205625 37.46375 -30.41125 36.9275 -28.5625 36.375 C-17.42212547 32.6352983 -9.85997403 26.55669647 -4.25 16.25 C-1.74093795 11.00597964 -0.73073231 5.73679399 0 0 Z " fill="#F8B450" transform="translate(350,272)"/>
<path d="M0 0 C2.64233769 2.19257809 4.46669809 3.93339618 6 7 C6.39431433 11.73177192 6.45299639 14.09400722 4.3125 18.375 C1.80601659 21.22019739 0.68897534 22.24543686 -3 23 C-7.64069233 23.15091682 -10.27160742 22.58891315 -13.9375 19.625 C-17.18146159 15.49632161 -17.52464472 12.15900646 -17 7 C-15.27117567 3.95726919 -12.92764623 1.73571942 -10.1875 -0.4375 C-6.66593236 -1.34304597 -3.42651657 -1.07418575 0 0 Z " fill="#08828F" transform="translate(592,333)"/>
<path d="M0 0 C0.33 0 0.66 0 1 0 C1 8.58 1 17.16 1 26 C2.65 26 4.3 26 6 26 C8.3125 28.5 8.3125 28.5 10 31 C6.45633299 33.04442328 4.39797371 33.26700438 0 34 C0 22.78 0 11.56 0 0 Z " fill="#C8E0E4" transform="translate(798,335)"/>
<path d="M0 0 C0.33 0.99 0.66 1.98 1 3 C-1.97 3 -4.94 3 -8 3 C-7.67 4.32 -7.34 5.64 -7 7 C-4.69 7 -2.38 7 0 7 C1.06775224 8.96466413 2.06553465 10.96855359 3 13 C2.67 13.66 2.34 14.32 2 15 C0.37258256 14.21331482 -1.25186131 13.4204759 -2.875 12.625 C-4.23238281 11.96371094 -4.23238281 11.96371094 -5.6171875 11.2890625 C-8 10 -8 10 -10 8 C-10.35571424 5.22542896 -10.36405327 3.62103204 -8.9375 1.1875 C-6.00731249 -0.60842137 -3.3527047 -0.18977574 0 0 Z " fill="#E8F1F3" transform="translate(431,385)"/>
<path d="M0 0 C1.32 0 2.64 0 4 0 C4 5.61 4 11.22 4 17 C2.68 17 1.36 17 0 17 C0 11.39 0 5.78 0 0 Z " fill="#028380" transform="translate(355,206)"/>
<path d="M0 0 C7.92 0.33 15.84 0.66 24 1 C24 7.6 24 14.2 24 21 C23.34 20.67 22.68 20.34 22 20 C22 14.72 22 9.44 22 4 C21.34 4 20.68 4 20 4 C20 3.34 20 2.68 20 2 C13.4 2 6.8 2 0 2 C0 1.34 0 0.68 0 0 Z " fill="#C5E0E0" transform="translate(262,204)"/>
<path d="M0 0 C6.6 0 13.2 0 20 0 C18.21739173 3.56521654 16.24007711 6.71455357 14 10 C13.67 9.01 13.34 8.02 13 7 C12.34 7 11.68 7 11 7 C11 5.35 11 3.7 11 2 C7.37 1.67 3.74 1.34 0 1 C0 0.67 0 0.34 0 0 Z " fill="#29929D" transform="translate(672,368)"/>
<path d="M0 0 C1.98 0.99 1.98 0.99 4 2 C4.33 1.34 4.66 0.68 5 0 C7.02614907 4.87776628 7.00396226 8.19888894 6.125 13.375 C5.92132813 14.62023437 5.71765625 15.86546875 5.5078125 17.1484375 C5.34023437 18.08945312 5.17265625 19.03046875 5 20 C4.34 20 3.68 20 3 20 C2.67 20.66 2.34 21.32 2 22 C2 20.02 2 18.04 2 16 C2.33 16 2.66 16 3 16 C3 13.36 3 10.72 3 8 C2.34 9.32 1.68 10.64 1 12 C0.67 8.04 0.34 4.08 0 0 Z " fill="#F3F6F7" transform="translate(232,304)"/>
<path d="M0 0 C1.65 0.33 3.3 0.66 5 1 C4.01 1.495 4.01 1.495 3 2 C3 2.66 3 3.32 3 4 C9.93 4.495 9.93 4.495 17 5 C17 5.33 17 5.66 17 6 C11.39 6 5.78 6 0 6 C0 7.98 0 9.96 0 12 C-1.32 11.67 -2.64 11.34 -4 11 C-3.67 10.01 -3.34 9.02 -3 8 C-2.67 8.33 -2.34 8.66 -2 9 C-2 7.35 -2 5.7 -2 4 C-1.34 4 -0.68 4 0 4 C0 2.68 0 1.36 0 0 Z " fill="#CAE3E5" transform="translate(946,361)"/>
<path d="M0 0 C0.66 0.99 1.32 1.98 2 3 C1.01 3.33 0.02 3.66 -1 4 C-1.33 4.66 -1.66 5.32 -2 6 C-2.33 6.66 -2.66 7.32 -3 8 C-3.99 8.33 -4.98 8.66 -6 9 C-6.33 9.99 -6.66 10.98 -7 12 C-8.32 11.34 -9.64 10.68 -11 10 C-9.02 7.36 -7.04 4.72 -5 2 C-3.35 2.33 -1.7 2.66 0 3 C0 2.01 0 1.02 0 0 Z " fill="#EAF0F2" transform="translate(686,381)"/>
<path d="M0 0 C0.99 0.33 1.98 0.66 3 1 C2.67 2.98 2.34 4.96 2 7 C1.34 7 0.68 7 0 7 C0.33 7.99 0.66 8.98 1 10 C0.67 10.33 0.34 10.66 0 11 C-0.04092937 13.33297433 -0.04241723 15.66705225 0 18 C-0.33 17.34 -0.66 16.68 -1 16 C-1.66 16 -2.32 16 -3 16 C-3.33 16.99 -3.66 17.98 -4 19 C-5 17 -5 17 -4.2578125 14.35546875 C-3.88398438 13.31003906 -3.51015625 12.26460938 -3.125 11.1875 C-1.8024289 7.46487855 -0.67684614 3.89546553 0 0 Z " fill="#16888F" transform="translate(366,279)"/>
<path d="M0 0 C5.61 0.66 11.22 1.32 17 2 C17 2.33 17 2.66 17 3 C11.39 3 5.78 3 0 3 C0 2.01 0 1.02 0 0 Z " fill="#E6F1F1" transform="translate(420,435)"/>
<path d="M0 0 C0.33 1.32 0.66 2.64 1 4 C0.01 5.485 0.01 5.485 -1 7 C-1 7.99 -1 8.98 -1 10 C-2.32 9.67 -3.64 9.34 -5 9 C-5.33 9.99 -5.66 10.98 -6 12 C-6.66 11.67 -7.32 11.34 -8 11 C-5.36 7.37 -2.72 3.74 0 0 Z " fill="#E1ECF0" transform="translate(670,398)"/>
<path d="M0 0 C1.0625 1.875 1.0625 1.875 2 4 C1 6 1 6 -0.9375 6.8125 C-3.68156708 8.39241741 -4.06890124 10.0515206 -5 13 C-5.66 13 -6.32 13 -7 13 C-5.58832253 7.73829306 -3.25149768 4.27828642 0 0 Z " fill="#198B92" transform="translate(883,381)"/>
<path d="M0 0 C0.66666667 1.33333333 1.33333333 2.66666667 2 4 C2.556875 5.03125 3.11375 6.0625 3.6875 7.125 C4.120625 8.07375 4.55375 9.0225 5 10 C4.67 10.66 4.34 11.32 4 12 C3.01 11.34 2.02 10.68 1 10 C1 9.01 1 8.02 1 7 C0.34 7 -0.32 7 -1 7 C-1.625 5.1875 -1.625 5.1875 -2 3 C-1.34 2.01 -0.68 1.02 0 0 Z " fill="#16878D" transform="translate(260,288)"/>
<path d="M0 0 C0.66 0 1.32 0 2 0 C2.33 1.98 2.66 3.96 3 6 C-0.75 8 -0.75 8 -3 8 C-1.125 2.25 -1.125 2.25 0 0 Z " fill="#ECF1F3" transform="translate(338,400)"/>
<path d="M0 0 C3 1 3 1 4 3 C4.66 3.66 5.32 4.32 6 5 C5.01 6.485 5.01 6.485 4 8 C1.69 6.35 -0.62 4.7 -3 3 C-2 2 -1 1 0 0 Z " fill="#E5F0F2" transform="translate(329,177)"/>
<path d="M0 0 C0.99 0.33 1.98 0.66 3 1 C0.33333333 3.66666667 -2.33333333 6.33333333 -5 9 C-5 8.01 -5 7.02 -5 6 C-5.66 5.67 -6.32 5.34 -7 5 C-5.90554162 4.13342884 -4.79902219 3.28207276 -3.6875 2.4375 C-3.07261719 1.96183594 -2.45773437 1.48617187 -1.82421875 0.99609375 C-1.22222656 0.66738281 -0.62023437 0.33867187 0 0 Z " fill="#138793" transform="translate(307,174)"/>
<path d="M0 0 C5.94 0.66 11.88 1.32 18 2 C18 2.33 18 2.66 18 3 C12.39 3 6.78 3 1 3 C0.67 2.01 0.34 1.02 0 0 Z " fill="#168995" transform="translate(412,436)"/>
<path d="M0 0 C1.32 0 2.64 0 4 0 C3.67 1.65 3.34 3.3 3 5 C3.99 5.33 4.98 5.66 6 6 C5.67 7.32 5.34 8.64 5 10 C3.02 7.03 1.04 4.06 -1 1 C-0.67 0.67 -0.34 0.34 0 0 Z " fill="#148791" transform="translate(642,418)"/>
<path d="M0 0 C0.66 1.32 1.32 2.64 2 4 C-0.31 5.65 -2.62 7.3 -5 9 C-5.66 8.01 -6.32 7.02 -7 6 C-5.35 5.34 -3.7 4.68 -2 4 C-2 3.34 -2 2.68 -2 2 C-1.34 2 -0.68 2 0 2 C0 1.34 0 0.68 0 0 Z " fill="#E6EFEF" transform="translate(409,366)"/>
<path d="M0 0 C0.33 0.99 0.66 1.98 1 3 C0.01 3.33 -0.98 3.66 -2 4 C-2.103125 4.639375 -2.20625 5.27875 -2.3125 5.9375 C-2.539375 6.618125 -2.76625 7.29875 -3 8 C-6.0625 9.25 -6.0625 9.25 -9 10 C-8.06409496 8.8944811 -7.12620142 7.79064547 -6.1875 6.6875 C-5.66542969 6.07261719 -5.14335937 5.45773437 -4.60546875 4.82421875 C-3.12827531 3.14575321 -1.59960869 1.56117966 0 0 Z " fill="#E4EFF2" transform="translate(377,349)"/>
<path d="M0 0 C0.66 0.33 1.32 0.66 2 1 C1.375 2.875 1.375 2.875 0 5 C-3.125 6.25 -3.125 6.25 -6 7 C-6 6.01 -6 5.02 -6 4 C-3 1.8125 -3 1.8125 0 0 Z " fill="#138893" transform="translate(276,195)"/>
<path d="M0 0 C0.66 0.66 1.32 1.32 2 2 C-3.61 1.67 -9.22 1.34 -15 1 C-15 0.67 -15 0.34 -15 0 C-13.25093341 -0.19601608 -11.50068154 -0.38147403 -9.75 -0.5625 C-8.77546875 -0.66691406 -7.8009375 -0.77132813 -6.796875 -0.87890625 C-4.19887862 -0.99138933 -2.42306283 -0.89524667 0 0 Z " fill="#E1EFEF" transform="translate(930,458)"/>
<path d="M0 0 C0.33 0.66 0.66 1.32 1 2 C1.66 2 2.32 2 3 2 C2.67 2.99 2.34 3.98 2 5 C0.68 4.67 -0.64 4.34 -2 4 C-2.66 5.32 -3.32 6.64 -4 8 C-4.66 7.67 -5.32 7.34 -6 7 C-4.02 4.69 -2.04 2.38 0 0 Z " fill="#E1EFF1" transform="translate(364,362)"/>
<path d="M0 0 C1.32 0.66 2.64 1.32 4 2 C1.36 4.64 -1.28 7.28 -4 10 C-4.33 9.01 -4.66 8.02 -5 7 C-4.34 7 -3.68 7 -3 7 C-2.67 6.01 -2.34 5.02 -2 4 C-1.34 4 -0.68 4 0 4 C0 2.68 0 1.36 0 0 Z " fill="#168790" transform="translate(368,353)"/>
<path d="M0 0 C0 0.66 0 1.32 0 2 C-4.42778844 4.74522883 -7.71862571 6.48474397 -13 7 C-4.25 0 -4.25 0 0 0 Z " fill="#218B91" transform="translate(345,317)"/>
<path d="M0 0 C0.99 0 1.98 0 3 0 C3 1.98 3 3.96 3 6 C2.01 6.495 2.01 6.495 1 7 C1 6.34 1 5.68 1 5 C0.01 5 -0.98 5 -2 5 C-1.34 3.35 -0.68 1.7 0 0 Z " fill="#EBF0F3" transform="translate(332,415)"/>
<path d="M0 0 C0.598125 0.226875 1.19625 0.45375 1.8125 0.6875 C1.8125 1.3475 1.8125 2.0075 1.8125 2.6875 C1.02875 2.955625 0.245 3.22375 -0.5625 3.5 C-3.46864923 4.53564432 -3.46864923 4.53564432 -5.1875 7.6875 C-5.41803497 4.84423536 -5.54653101 3.22604651 -3.9375 0.8125 C-2.1875 -0.3125 -2.1875 -0.3125 0 0 Z " fill="#E1EDF1" transform="translate(727.1875,385.3125)"/>
<path d="M0 0 C0.33 2.97 0.66 5.94 1 9 C-0.32 7.35 -1.64 5.7 -3 4 C-3.99 4.33 -4.98 4.66 -6 5 C-6 4.34 -6 3.68 -6 3 C-2.53846154 0 -2.53846154 0 0 0 Z " fill="#258D91" transform="translate(259,279)"/>
<path d="M0 0 C1.65 0 3.3 0 5 0 C4.67 0.5775 4.34 1.155 4 1.75 C2.72924102 4.19883862 2.72924102 4.19883862 3 8 C1.68 8 0.36 8 -1 8 C-0.67 5.36 -0.34 2.72 0 0 Z " fill="#FAB95D" transform="translate(350,272)"/>
<path d="M0 0 C0.66 0.66 1.32 1.32 2 2 C1.625 5.625 1.625 5.625 1 9 C0.71125 8.360625 0.4225 7.72125 0.125 7.0625 C-0.82823451 4.84793921 -0.82823451 4.84793921 -3 4 C-2.67 3.01 -2.34 2.02 -2 1 C-1.34 0.67 -0.68 0.34 0 0 Z " fill="#DAEAEC" transform="translate(742,426)"/>
<path d="M0 0 C2.64465038 3.1254959 3.84414715 6.08788267 5 10 C4.01 10.495 4.01 10.495 3 11 C3 10.01 3 9.02 3 8 C2.01 7.67 1.02 7.34 0 7 C0 4.69 0 2.38 0 0 Z " fill="#D9EAED" transform="translate(282,392)"/>
<path d="M0 0 C0.99 0.33 1.98 0.66 3 1 C3 1.66 3 2.32 3 3 C1.04072937 4.7143618 -0.95880212 6.38405168 -3 8 C-3.1875 5.125 -3.1875 5.125 -3 2 C-2.01 1.34 -1.02 0.68 0 0 Z " fill="#E5F1F2" transform="translate(665,368)"/>
<path d="M0 0 C0.99 0.33 1.98 0.66 3 1 C3 1.99 3 2.98 3 4 C3.66 4.33 4.32 4.66 5 5 C4.67 6.32 4.34 7.64 4 9 C-0.00390625 4.60546875 -0.00390625 4.60546875 -1 3 C-0.67 2.01 -0.34 1.02 0 0 Z " fill="#E4B360" transform="translate(270,303)"/>
<path d="M0 0 C-2.55068845 2.35448165 -3.71017358 2.98327924 -7.25 3.1875 C-8.1575 3.125625 -9.065 3.06375 -10 3 C-10 2.34 -10 1.68 -10 1 C-3.71428571 -1.42857143 -3.71428571 -1.42857143 0 0 Z " fill="#E5EEEF" transform="translate(304,220)"/>
<path d="M0 0 C0.33 0.99 0.66 1.98 1 3 C-0.98 4.32 -2.96 5.64 -5 7 C-5 6.34 -5 5.68 -5 5 C-5.66 4.67 -6.32 4.34 -7 4 C-4.77810176 1.77810176 -2.91517292 1.07401108 0 0 Z " fill="#EAF0F0" transform="translate(300,176)"/>
<path d="M0 0 C0.33 0.99 0.66 1.98 1 3 C0.01 4.485 0.01 4.485 -1 6 C-0.34 6 0.32 6 1 6 C0.67 7.32 0.34 8.64 0 10 C-2 9 -2 9 -4 6 C-2.68 4.02 -1.36 2.04 0 0 Z " fill="#E7F0F1" transform="translate(598,347)"/>
<path d="M0 0 C6.52307692 0.61538462 6.52307692 0.61538462 8.9375 2.5625 C9.288125 3.036875 9.63875 3.51125 10 4 C8.72125 3.896875 7.4425 3.79375 6.125 3.6875 C5.04605469 3.60048828 5.04605469 3.60048828 3.9453125 3.51171875 C2 3 2 3 0 0 Z " fill="#208D95" transform="translate(579,352)"/>
<path d="M0 0 C0.33 0 0.66 0 1 0 C0.75 3.375 0.75 3.375 0 7 C-2.0625 8.4375 -2.0625 8.4375 -4 9 C-4.66 7.68 -5.32 6.36 -6 5 C-4.68 5 -3.36 5 -2 5 C-1.34 3.35 -0.68 1.7 0 0 Z " fill="#D6E9EE" transform="translate(442,428)"/>
<path d="M0 0 C0 1.32 0 2.64 0 4 C-5.75 3.25 -5.75 3.25 -8 1 C-5.10765685 0.17361624 -3.11257569 0 0 0 Z " fill="#188891" transform="translate(458,385)"/>
<path d="M0 0 C3.82524236 1.450954 5.19090966 3.38181932 7 7 C7 7.66 7 8.32 7 9 C2.97449681 7.6581656 2.11714364 5.5772427 0 2 C0 1.34 0 0.68 0 0 Z " fill="#188893" transform="translate(591,333)"/>
<path d="M0 0 C1.32 0.33 2.64 0.66 4 1 C3.67 3.97 3.34 6.94 3 10 C2.34 9.67 1.68 9.34 1 9 C0.5859375 6.93359375 0.5859375 6.93359375 0.375 4.4375 C0.30023438 3.61121094 0.22546875 2.78492188 0.1484375 1.93359375 C0.09945313 1.29550781 0.05046875 0.65742188 0 0 Z " fill="#E5EFF2" transform="translate(387,314)"/>
<path d="M0 0 C0.66 0 1.32 0 2 0 C2 0.66 2 1.32 2 2 C2.99 2.33 3.98 2.66 5 3 C5.33 4.32 5.66 5.64 6 7 C3.36 5.35 0.72 3.7 -2 2 C-1.34 1.34 -0.68 0.68 0 0 Z " fill="#DEECEE" transform="translate(338,185)"/>
<path d="M0 0 C0.20625 0.5775 0.4125 1.155 0.625 1.75 C2.49750888 4.81410544 4.96958519 6.15539968 8 8 C4.88407501 9.03864166 3.9737344 9.09036928 1 8 C-0.35439668 5.29120665 -0.06501451 2.99066732 0 0 Z " fill="#17878C" transform="translate(721,389)"/>
<path d="M0 0 C-1.32 0.33 -2.64 0.66 -4 1 C-4 1.99 -4 2.98 -4 4 C-6.97 3.505 -6.97 3.505 -10 3 C-4.375 -1.3125 -4.375 -1.3125 0 0 Z " fill="#DCEAEC" transform="translate(915,386)"/>
<path d="M0 0 C2.15377564 2.62198774 3.40072174 4.64404172 4 8 C3.01 8.33 2.02 8.66 1 9 C-0.61949011 6.42786866 -1.04408751 5.32330841 -0.625 2.25 C-0.41875 1.5075 -0.2125 0.765 0 0 Z " fill="#EBF2EF" transform="translate(573,343)"/>
<path d="M0 0 C1.65 0.33 3.3 0.66 5 1 C5.33 2.32 5.66 3.64 6 5 C4.68 5 3.36 5 2 5 C2 4.34 2 3.68 2 3 C1.01 2.67 0.02 2.34 -1 2 C-0.67 1.34 -0.34 0.68 0 0 Z " fill="#E5F1EF" transform="translate(593,332)"/>
<path d="M0 0 C3.465 1.98 3.465 1.98 7 4 C6.01 4.66 5.02 5.32 4 6 C3.01 5.67 2.02 5.34 1 5 C0.67 3.35 0.34 1.7 0 0 Z " fill="#249099" transform="translate(345,193)"/>
<path d="M0 0 C4 4.75 4 4.75 4 7 C3.01 7.33 2.02 7.66 1 8 C-1 5 -1 5 -0.625 2.3125 C-0.41875 1.549375 -0.2125 0.78625 0 0 Z " fill="#E9F0F3" transform="translate(876,431)"/>
<path d="M0 0 C1.98 0.99 1.98 0.99 4 2 C3.67 3.98 3.34 5.96 3 8 C0.4345406 5.4345406 0.45953913 3.52313332 0 0 Z " fill="#25939A" transform="translate(298,431)"/>
<path d="M0 0 C2.475 0.99 2.475 0.99 5 2 C4.34 3.32 3.68 4.64 3 6 C1.68 4.68 0.36 3.36 -1 2 C-0.67 1.34 -0.34 0.68 0 0 Z " fill="#E4F1EF" transform="translate(897,424)"/>
<path d="M0 0 C2.5 2.3125 2.5 2.3125 5 5 C5 5.99 5 6.98 5 8 C3.02 6.35 1.04 4.7 -1 3 C-0.67 2.01 -0.34 1.02 0 0 Z " fill="#E3EDF3" transform="translate(702,402)"/>
<path d="M0 0 C0.66 0 1.32 0 2 0 C1.67 1.65 1.34 3.3 1 5 C1.66 5 2.32 5 3 5 C3 5.66 3 6.32 3 7 C0.525 6.01 0.525 6.01 -2 5 C-2 4.34 -2 3.68 -2 3 C-1.34 3 -0.68 3 0 3 C0 2.01 0 1.02 0 0 Z " fill="#12888F" transform="translate(580,449)"/>
<path d="M0 0 C-1.625 1.5625 -1.625 1.5625 -4 3 C-7.25 2.6875 -7.25 2.6875 -10 2 C-6.19832777 -0.53444815 -4.31588991 -1.33941411 0 0 Z " fill="#D6E5EB" transform="translate(513,386)"/>
<path d="M0 0 C0.33 0 0.66 0 1 0 C1 2.97 1 5.94 1 9 C0.34 9 -0.32 9 -1 9 C-1.33 9.66 -1.66 10.32 -2 11 C-2 9.02 -2 7.04 -2 5 C-1.67 5 -1.34 5 -1 5 C-0.67 3.35 -0.34 1.7 0 0 Z " fill="#D8E8E9" transform="translate(236,315)"/>
<path d="M0 0 C1.32 1.32 2.64 2.64 4 4 C2.68 4.99 1.36 5.98 0 7 C-0.93423645 3.98968256 -1.04449911 3.13349732 0 0 Z " fill="#108890" transform="translate(675,433)"/>
<path d="M0 0 C2.97 0.33 5.94 0.66 9 1 C8.67 1.66 8.34 2.32 8 3 C5.6875 3.1875 5.6875 3.1875 3 3 C2.01 2.01 1.02 1.02 0 0 Z " fill="#E7F2F4" transform="translate(443,386)"/>
<path d="M0 0 C2.97 0.495 2.97 0.495 6 1 C5.01 2.485 5.01 2.485 4 4 C1.36 3.67 -1.28 3.34 -4 3 C-2.68 2.67 -1.36 2.34 0 2 C0 1.34 0 0.68 0 0 Z " fill="#D2E7E7" transform="translate(830,363)"/>
<path d="M0 0 C2.875 -0.1875 2.875 -0.1875 6 0 C6.66 0.99 7.32 1.98 8 3 C7.01 3.33 6.02 3.66 5 4 C2.3125 2.625 2.3125 2.625 0 1 C0 0.67 0 0.34 0 0 Z " fill="#E6B35A" transform="translate(280,316)"/>
<path d="M0 0 C0.66 0 1.32 0 2 0 C2.98120464 3.05263664 2.98120464 4.94736336 2 8 C1.01 7.67 0.02 7.34 -1 7 C-0.67 4.69 -0.34 2.38 0 0 Z " fill="#E8B45A" transform="translate(276,306)"/>
<path d="M0 0 C-1.32 1.32 -2.64 2.64 -4 4 C-4.99 3.67 -5.98 3.34 -7 3 C-7 2.34 -7 1.68 -7 1 C-4.53721199 -0.231394 -2.7204945 -0.07159196 0 0 Z " fill="#EBF2F4" transform="translate(273,197)"/>
</svg>
