<svg xmlns="http://www.w3.org/2000/svg" xmlns:xlink="http://www.w3.org/1999/xlink" viewBox="0 0 64 64" id="article-writing"><defs><path id="a" d="m41.72 55.39 4.22 2.29a1.35 1.35 0 0 0-.83-.14l-4.21-2.29c.3-.04.58.01.82.14z"></path></defs><clipPath id="b"><use overflow="visible" xlink:href="#a"></use></clipPath><g clip-path="url(#b)"><path fill="#979797" d="m45.11 57.54-4.21-2.29c.19-.03.37-.02.54.03l4.22 2.29c-.18-.04-.36-.05-.55-.03"></path><path fill="#939393" d="m45.64 57.57-4.22-2.29c.09.02.17.05.24.09l4.21 2.29a.69.69 0 0 0-.23-.09"></path><path fill="#8f8f8f" d="m45.89 57.66-4.21-2.29c.02.01.03.02.05.02l4.22 2.29c-.03 0-.05-.01-.06-.02"></path></g><path fill="#a2a2a1" d="m22.99 60.65-4.21-2.29 22.11-3.11 4.22 2.29z"></path><defs><path id="c" d="m22.16 63.84-4.22-2.29c-.43-.23-.71-.71-.71-1.3 0-.92.69-1.77 1.54-1.89l4.21 2.29c-.85.12-1.54.97-1.54 1.89.01.59.29 1.07.72 1.3z"></path></defs><clipPath id="d"><use overflow="visible" xlink:href="#c"></use></clipPath><g clip-path="url(#d)"><path fill="#787878" d="m22.16 63.84-4.22-2.29c-.43-.23-.71-.71-.71-1.3 0-.23.04-.45.12-.66l4.21 2.29c-.08.21-.12.43-.12.66.01.59.29 1.07.72 1.3"></path><path fill="#7d7d7d" d="m21.57 61.88-4.21-2.29c.03-.09.07-.18.12-.26l4.21 2.29c-.05.08-.09.17-.12.26"></path><path fill="#818181" d="m21.68 61.62-4.21-2.29c.04-.07.08-.14.13-.21l4.22 2.29c-.05.07-.1.14-.14.21"></path><path fill="#858585" d="m21.81 61.41-4.22-2.29c.04-.06.09-.12.14-.18l4.22 2.29c-.05.06-.1.12-.14.18"></path><path fill="#898989" d="m21.95 61.24-4.22-2.29c.05-.06.1-.11.16-.16l4.21 2.29c-.05.05-.1.1-.15.16"></path><path fill="#8f8f8f" d="m22.11 61.08-4.21-2.29c.06-.05.12-.1.19-.15l4.22 2.29c-.08.05-.14.09-.2.15"></path><path fill="#939393" d="m22.29 60.93-4.22-2.29c.08-.05.16-.1.25-.14l4.22 2.29c-.08.04-.17.09-.25.14"></path><path fill="#979797" d="m22.54 60.79-4.22-2.29c.14-.07.29-.11.45-.13l4.21 2.29c-.14.01-.29.06-.44.13"></path></g><path fill="#c8c8c8" d="M45.11 57.54c.86-.12 1.55.53 1.54 1.45 0 .92-.69 1.76-1.55 1.88l-22.12 3.11c-.85.12-1.54-.53-1.54-1.45 0-.92.69-1.77 1.54-1.89l22.13-3.1z"></path><path fill="#347264" d="m25.88 60.25-4.22-2.3 2.18-5.67 4.21 2.29z"></path><path fill="#408e7b" d="m28.05 54.57-4.21-2.29 12.01-1.69 4.22 2.29z"></path><path fill="#50af98" d="m40.07 52.88 2.15 5.07-16.34 2.3 2.17-5.68z"></path><defs><path id="e" d="M28.99 48.97c.25.14.54.19.86.15 1.24.68 2.48 1.35 3.72 2.03l.49.27c-.32.04-.61-.01-.86-.15-1.26-.69-2.95-1.61-4.21-2.3z"></path></defs><clipPath id="f"><use overflow="visible" xlink:href="#e"></use></clipPath><g clip-path="url(#f)"><path fill="#8f8f8f" d="m33.2 51.27-4.21-2.29c.02.01.03.02.05.03l4.22 2.29c-.02-.02-.04-.02-.06-.03"></path><path fill="#939393" d="M33.25 51.29 29.04 49c.08.04.17.07.25.09l4.22 2.29c-.09-.02-.18-.05-.26-.09"></path><path fill="#979797" d="m33.51 51.39-4.22-2.29c.17.04.36.06.55.03l4.21 2.29c-.18.02-.37.01-.54-.03"></path></g><defs><path id="g" d="M31.47 47.14c0-.62-.3-1.12-.75-1.37l4.22 2.29c.45.25.75.75.75 1.37 0 .97-.73 1.85-1.63 1.98l-4.21-2.29c.89-.12 1.62-1.01 1.62-1.98z"></path></defs><clipPath id="h"><use overflow="visible" xlink:href="#g"></use></clipPath><g clip-path="url(#h)"><path fill="#979797" d="m34.06 51.42-4.21-2.29c.17-.02.32-.07.47-.14l4.22 2.29c-.15.06-.31.11-.48.14"></path><path fill="#939393" d="m34.54 51.27-4.22-2.29c.09-.04.18-.09.26-.15l4.22 2.29c-.08.06-.17.11-.26.15"></path><path fill="#8f8f8f" d="m34.8 51.12-4.22-2.29c.07-.05.13-.1.2-.16l4.22 2.3c-.06.05-.13.1-.2.15"></path><path fill="#898989" d="m35 50.97-4.22-2.29c.06-.05.11-.11.17-.17l4.22 2.29-.17.17"></path><path fill="#858585" d="m35.16 50.8-4.22-2.29c.05-.06.1-.12.15-.19l4.22 2.29c-.05.07-.1.13-.15.19"></path><path fill="#818181" d="m35.31 50.61-4.22-2.29c.05-.07.09-.14.13-.21l4.21 2.29c-.03.07-.07.15-.12.21"></path><path fill="#7d7d7d" d="m35.44 50.4-4.21-2.29c.05-.09.09-.18.12-.27l4.22 2.29c-.04.09-.08.18-.13.27"></path><path fill="#787878" d="m35.56 50.13-4.22-2.29c.08-.22.12-.45.13-.69 0-.62-.3-1.12-.75-1.37l4.22 2.29c.45.25.75.75.75 1.37 0 .24-.05.47-.13.69"></path></g><defs><path id="i" d="m30.72 45.78 4.22 2.29c-.25-.14-.55-.19-.87-.15l-4.21-2.29c.31-.05.61.01.86.15z"></path></defs><clipPath id="j"><use overflow="visible" xlink:href="#i"></use></clipPath><g clip-path="url(#j)"><path fill="#46545a" d="m34.07 47.92-4.21-2.29c.2-.03.39-.02.56.03l4.21 2.29c-.17-.04-.36-.06-.56-.03"></path><path fill="#445157" d="m34.63 47.95-4.21-2.29c.09.02.18.06.26.09l4.21 2.29c-.08-.03-.17-.07-.26-.09"></path><path fill="#404f55" d="m34.89 48.05-4.21-2.29c.02.01.03.02.05.03l4.22 2.29c-.03-.02-.04-.03-.06-.03"></path></g><defs><path id="k" d="m33.2 51.27-4.21-2.29c-.45-.25-.75-.75-.75-1.38 0-.96.73-1.84 1.62-1.97l4.21 2.29c-.89.12-1.62 1.01-1.62 1.97 0 .63.3 1.13.75 1.38z"></path></defs><clipPath id="l"><use overflow="visible" xlink:href="#k"></use></clipPath><g clip-path="url(#l)"><path fill="#374247" d="m33.2 51.27-4.21-2.29c-.45-.25-.75-.75-.75-1.38 0-.24.04-.47.12-.68l4.21 2.29c-.08.22-.12.45-.12.68 0 .63.3 1.13.75 1.38"></path><path fill="#39454a" d="m32.58 49.21-4.21-2.29c.03-.09.08-.18.12-.27l4.22 2.29a.96.96 0 0 0-.13.27"></path><path fill="#3b474d" d="m32.7 48.94-4.22-2.29c.04-.07.08-.15.13-.21l4.21 2.29c-.04.06-.08.13-.12.21"></path><path fill="#3d4a4f" d="m32.83 48.72-4.21-2.29c.05-.06.09-.13.15-.19l4.22 2.29-.16.19"></path><path fill="#3f4c52" d="m32.98 48.54-4.22-2.29c.05-.06.11-.12.17-.17l4.21 2.29c-.06.05-.11.11-.16.17"></path><path fill="#404f55" d="m33.14 48.37-4.21-2.29c.06-.06.13-.11.2-.16l4.22 2.29c-.08.05-.15.1-.21.16"></path><path fill="#445157" d="m33.34 48.21-4.22-2.29c.08-.06.17-.11.26-.15l4.22 2.29c-.09.05-.18.1-.26.15"></path><path fill="#46545a" d="m33.6 48.06-4.22-2.29c.15-.07.31-.12.47-.14l4.21 2.29c-.15.03-.31.07-.46.14"></path></g><path fill="#5c6e76" d="M34.07 47.92c.9-.13 1.62.56 1.62 1.51 0 .97-.73 1.85-1.63 1.98-.89.12-1.61-.56-1.61-1.52s.73-1.84 1.62-1.97z"></path><defs><path id="m" d="m8.89 56.85-4.22-2.29c-.7-.38-1.16-1.16-1.16-2.12l4.21 2.29c.01.96.47 1.73 1.17 2.12z"></path></defs><clipPath id="n"><use overflow="visible" xlink:href="#m"></use></clipPath><g clip-path="url(#n)"><path fill="#787878" d="m8.89 56.85-4.22-2.29c-.7-.38-1.16-1.16-1.16-2.12l4.21 2.29c.01.96.47 1.73 1.17 2.12"></path></g><path fill="#a2a2a1" d="m7.74 49.31-4.21-2.29 52.67-7.4 4.21 2.29z"></path><path fill="#c8c8c8" d="m7.74 49.31 52.67-7.4-.01 5.41c0 1.49-1.13 2.86-2.51 3.05l-17.83 2.51-12.01 1.69-17.82 2.5c-1.38.19-2.5-.86-2.5-2.35l.01-5.41zm26.32 2.11c.9-.13 1.62-1.01 1.63-1.98 0-.96-.72-1.64-1.62-1.51-.89.12-1.62 1.01-1.62 1.97s.72 1.64 1.61 1.52"></path><path fill="#767676" d="m7.73 54.72-4.21-2.29.01-5.41 4.21 2.29z"></path><defs><path id="o" d="M56.75 39.29 52.54 37c.32-.04.57-.35.57-.7l4.22 2.29c-.01.35-.26.66-.58.7z"></path></defs><clipPath id="p"><use overflow="visible" xlink:href="#o"></use></clipPath><g clip-path="url(#p)"><path fill="#36484c" d="M56.75 39.29 52.54 37c.06-.01.12-.03.17-.05l4.21 2.29a.48.48 0 0 1-.17.05"></path><path fill="#34464a" d="m56.92 39.24-4.21-2.29c.03-.02.06-.03.09-.05l4.21 2.29c-.03.02-.06.04-.09.05"></path><path fill="#334448" d="M57.01 39.19 52.8 36.9c.02-.02.05-.03.07-.05l4.21 2.29c-.02.01-.04.03-.07.05"></path><path fill="#314245" d="m57.08 39.13-4.21-2.29.06-.06 4.21 2.29a.17.17 0 0 1-.06.06"></path><path fill="#2f4043" d="m57.14 39.08-4.21-2.29c.02-.02.03-.04.05-.06l4.21 2.29c-.02.01-.03.04-.05.06"></path><path fill="#2e3d41" d="m57.19 39.01-4.21-2.29c.02-.02.03-.05.05-.07l4.22 2.29c-.03.02-.04.05-.06.07"></path><path fill="#2c3b3f" d="m57.24 38.94-4.22-2.29c.02-.03.03-.06.04-.09l4.22 2.29c-.01.03-.03.06-.04.09"></path><path fill="#2b393c" d="m57.28 38.84-4.22-2.29a.69.69 0 0 0 .04-.25l4.22 2.29c0 .09-.01.18-.04.25"></path></g><path fill="#29373a" d="m57.32 38.6-4.21-2.3.06-32.45 4.21 2.29z"></path><defs><path id="q" d="m48.76 31.02 4.21 2.29c.23.13.38.38.38.7 0 .5-.37.94-.82 1l-4.21-2.29c.45-.06.82-.51.82-1 .01-.32-.15-.58-.38-.7z"></path></defs><clipPath id="r"><use overflow="visible" xlink:href="#q"></use></clipPath><g clip-path="url(#r)"><path fill="#9d9fa2" d="m52.54 35.01-4.21-2.29c.08-.01.17-.04.24-.07l4.22 2.29c-.09.03-.17.06-.25.07"></path><path fill="#999b9d" d="m52.78 34.94-4.22-2.29c.05-.02.09-.05.13-.08l4.21 2.29c-.03.03-.07.05-.12.08"></path><path fill="#949798" d="m52.91 34.86-4.21-2.29a.7.7 0 0 0 .1-.08l4.21 2.29c-.03.03-.06.06-.1.08"></path><path fill="#8f9393" d="m53.01 34.78-4.21-2.29c.03-.03.06-.05.08-.08l4.22 2.29c-.03.03-.06.05-.09.08"></path><path fill="#8c8e8e" d="m53.1 34.7-4.22-2.29a.55.55 0 0 0 .07-.09l4.22 2.29c-.02.03-.05.06-.07.09"></path><path fill="#868889" d="m53.17 34.6-4.22-2.29c.02-.03.05-.07.07-.11l4.22 2.29c-.02.04-.05.08-.07.11"></path><path fill="#818484" d="m53.24 34.5-4.22-2.29c.02-.04.04-.09.06-.14l4.21 2.29c-.01.04-.03.09-.05.14"></path><path fill="#7d7f80" d="m53.3 34.36-4.21-2.29c.04-.11.06-.23.06-.35 0-.31-.15-.57-.38-.7l4.21 2.29c.23.13.38.38.38.7 0 .12-.02.24-.06.35"></path></g><defs><path id="s" d="m48.76 31.02 4.21 2.29a.727.727 0 0 0-.44-.08l-4.22-2.29c.18-.02.33.01.45.08z"></path></defs><clipPath id="t"><use overflow="visible" xlink:href="#s"></use></clipPath><g clip-path="url(#t)"><path fill="#848080" d="m52.54 33.23-4.22-2.29c.1-.01.19-.01.28.01l4.22 2.29c-.08-.01-.18-.02-.28-.01"></path><path fill="#807d7d" d="m52.82 33.25-4.22-2.29c.05.01.09.03.13.05l4.22 2.29c-.04-.02-.08-.04-.13-.05"></path><path fill="#7c7979" d="M52.95 33.3 48.74 31c.01 0 .02.01.03.01l4.21 2.29c-.01.01-.02 0-.03 0"></path></g><defs><path id="u" d="m48.78 24.13 4.21 2.29c.23.13.38.38.38.7 0 .5-.37.94-.82 1l-4.21-2.29c.45-.06.82-.51.82-1 0-.31-.15-.57-.38-.7z"></path></defs><clipPath id="v"><use overflow="visible" xlink:href="#u"></use></clipPath><g clip-path="url(#v)"><path fill="#9d9fa2" d="m52.55 28.13-4.21-2.29c.08-.01.17-.04.24-.07l4.21 2.29c-.07.03-.15.05-.24.07"></path><path fill="#999b9d" d="m52.79 28.05-4.21-2.29c.05-.02.09-.05.13-.08l4.21 2.29c-.04.04-.08.06-.13.08"></path><path fill="#949798" d="m52.93 27.98-4.21-2.29a.7.7 0 0 0 .1-.08l4.22 2.29c-.05.03-.08.05-.11.08"></path><path fill="#8f9393" d="m53.03 27.9-4.22-2.29c.03-.03.06-.05.08-.08l4.21 2.29c-.02.02-.04.05-.07.08"></path><path fill="#8c8e8e" d="m53.11 27.81-4.21-2.29a.55.55 0 0 0 .07-.09l4.21 2.29c-.02.03-.04.06-.07.09"></path><path fill="#868889" d="m53.18 27.72-4.21-2.29c.02-.03.05-.07.07-.11l4.21 2.29c-.02.04-.04.08-.07.11"></path><path fill="#818484" d="m53.25 27.61-4.21-2.29c.02-.04.04-.09.06-.14l4.22 2.29c-.03.05-.05.1-.07.14"></path><path fill="#7d7f80" d="m53.31 27.47-4.22-2.29c.04-.11.06-.23.06-.35 0-.31-.15-.57-.38-.7l4.21 2.29c.23.13.38.38.38.7a.68.68 0 0 1-.05.35"></path></g><defs><path id="w" d="m48.78 24.13 4.21 2.29a.727.727 0 0 0-.44-.08l-4.22-2.29c.17-.01.32.02.45.08z"></path></defs><clipPath id="x"><use overflow="visible" xlink:href="#w"></use></clipPath><g clip-path="url(#x)"><path fill="#848080" d="m52.55 26.35-4.22-2.29c.1-.01.19-.01.28.01l4.22 2.29a.856.856 0 0 0-.28-.01"></path><path fill="#807d7d" d="m52.84 26.37-4.22-2.29c.05.01.09.03.13.05l4.22 2.29c-.04-.03-.09-.04-.13-.05"></path><path fill="#7c7979" d="m52.97 26.41-4.22-2.29c.01 0 .02.01.03.01l4.21 2.29c-.01 0-.01 0-.02-.01"></path></g><defs><path id="y" d="M45.16 18.77c.16-.25.28-.51.37-.81 1.41.76 2.81 1.53 4.22 2.29-.09.3-.22.57-.37.81-1.27-.69-2.96-1.6-4.22-2.29z"></path></defs><clipPath id="z"><use overflow="visible" xlink:href="#y"></use></clipPath><g clip-path="url(#z)"><path fill="#868889" d="m49.37 21.06-4.21-2.29.12-.21 4.21 2.29c-.03.07-.07.14-.12.21"></path><path fill="#818484" d="m49.5 20.85-4.21-2.29c.07-.13.13-.27.18-.41l4.21 2.29c-.05.14-.11.28-.18.41"></path><path fill="#7d7f80" d="m49.68 20.44-4.21-2.29c.02-.06.04-.13.06-.19.09-.3.13-.63.14-.98 0-.34-.04-.63-.14-.88-.1-.26-.22-.48-.38-.66-.13-.14-.28-.26-.45-.35l4.21 2.29c.17.09.32.21.45.35.16.18.29.4.38.66.1.25.14.55.14.88 0 .35-.05.68-.14.98-.01.06-.04.13-.06.19"></path></g><defs><path id="A" d="m48.8 21.7-4.21-2.29c.22-.18.41-.4.57-.64l4.21 2.29c-.16.24-.35.46-.57.64z"></path></defs><clipPath id="B"><use overflow="visible" xlink:href="#A"></use></clipPath><g clip-path="url(#B)"><path fill="#949798" d="m48.8 21.7-4.21-2.29c.03-.02.06-.05.08-.07l4.21 2.29c-.02.02-.05.05-.08.07"></path><path fill="#8f9393" d="m48.89 21.63-4.21-2.29c.08-.07.15-.15.22-.23l4.22 2.29c-.08.08-.15.16-.23.23"></path><path fill="#8c8e8e" d="m49.11 21.4-4.22-2.29.24-.3 4.22 2.29c-.08.1-.16.21-.24.3"></path><path fill="#868889" d="m49.35 21.1-4.22-2.29c.01-.01.02-.03.03-.04l4.21 2.29c-.01.01-.01.03-.02.04"></path></g><defs><path id="C" d="M45.53 17.96c.09-.3.13-.63.14-.98 1.41.76 2.81 1.53 4.22 2.29 0 .35-.05.68-.14.98-1.41-.77-2.81-1.53-4.22-2.29z"></path></defs><clipPath id="D"><use overflow="visible" xlink:href="#C"></use></clipPath><g clip-path="url(#D)"><path fill="#7d7f80" d="m49.68 20.44-4.21-2.29c.02-.06.04-.13.06-.19.09-.3.13-.63.14-.98 0-.34-.04-.63-.14-.88-.1-.26-.22-.48-.38-.66-.13-.14-.28-.26-.45-.35l4.21 2.29c.17.09.32.21.45.35.16.18.29.4.38.66.1.25.14.55.14.88 0 .35-.05.68-.14.98-.01.06-.04.13-.06.19"></path></g><defs><path id="E" d="m52.9 3.36 4.22 2.29c.16.09.27.27.26.48l-4.22-2.29c.01-.21-.1-.39-.26-.48z"></path></defs><clipPath id="F"><use overflow="visible" xlink:href="#E"></use></clipPath><g clip-path="url(#F)"><path fill="#2b393c" d="m57.38 6.14-4.22-2.29c0-.22-.1-.4-.26-.48l4.22 2.29c.16.08.26.26.26.48"></path></g><defs><path id="G" d="m48.08 22.19-4.21-2.29c.27-.13.5-.3.73-.49l4.21 2.29c-.23.19-.47.36-.73.49z"></path></defs><clipPath id="H"><use overflow="visible" xlink:href="#G"></use></clipPath><g clip-path="url(#H)"><path fill="#999b9d" d="m48.08 22.19-4.21-2.29c.14-.07.27-.15.39-.23l4.22 2.29c-.14.09-.27.17-.4.23"></path><path fill="#949798" d="m48.46 21.96-4.22-2.29c.12-.08.23-.17.34-.26l4.21 2.29c-.1.09-.21.18-.33.26"></path></g><defs><path id="I" d="m52.9 3.36 4.22 2.29c-.09-.05-.19-.07-.3-.05L52.6 3.31c.11-.01.22.01.3.05z"></path></defs><clipPath id="J"><use overflow="visible" xlink:href="#I"></use></clipPath><g clip-path="url(#J)"><path fill="#9d9fa2" d="m56.81 5.61-4.21-2.3c.07-.01.14-.01.2.01l4.22 2.29a.739.739 0 0 0-.21 0"></path><path fill="#999b9d" d="m57.01 5.62-4.21-2.3.09.03 4.21 2.29a.292.292 0 0 0-.09-.02"></path><path fill="#949798" d="m57.1 5.65-4.21-2.29c.01 0 .01.01.02.01l4.22 2.29c-.02-.01-.02-.01-.03-.01"></path></g><defs><path id="K" d="M45.67 16.98c0-.34-.04-.63-.14-.88 1.4.76 2.81 1.53 4.21 2.29.1.25.14.55.14.88-1.4-.76-2.81-1.53-4.21-2.29z"></path></defs><clipPath id="L"><use overflow="visible" xlink:href="#K"></use></clipPath><g clip-path="url(#L)"><path fill="#7d7f80" d="m49.68 20.44-4.21-2.29c.02-.06.04-.13.06-.19.09-.3.13-.63.14-.98 0-.34-.04-.63-.14-.88-.1-.26-.22-.48-.38-.66-.13-.14-.28-.26-.45-.35l4.21 2.29c.17.09.32.21.45.35.16.18.29.4.38.66.1.25.14.55.14.88 0 .35-.05.68-.14.98-.01.06-.04.13-.06.19"></path></g><defs><path id="M" d="m55.1.25 4.21 2.29c-.39-.21-.85-.3-1.34-.23L53.76.02c.5-.07.96.02 1.34.23z"></path></defs><clipPath id="N"><use overflow="visible" xlink:href="#M"></use></clipPath><g clip-path="url(#N)"><path fill="#36484c" d="M57.98 2.32 53.77.03c.3-.04.59-.02.86.04l4.22 2.29c-.27-.07-.56-.09-.87-.04"></path><path fill="#34464a" d="M58.85 2.36 54.63.07c.14.04.27.08.4.15l4.22 2.29c-.13-.06-.27-.11-.4-.15"></path><path fill="#334448" d="M59.24 2.51 55.02.22c.03.01.05.03.08.04l4.21 2.29a.161.161 0 0 0-.07-.04"></path></g><defs><path id="O" d="M45.53 16.09c-.1-.26-.22-.48-.38-.66 1.4.76 2.81 1.53 4.21 2.29.16.18.29.4.38.66-.34-.18-.68-.37-1.01-.55-.36-.2-.73-.4-1.09-.59-.27-.15-.55-.3-.82-.45-.16-.09-.37-.2-.53-.29-.15-.08-.36-.19-.51-.28-.08-.03-.2-.06-.25-.13z"></path></defs><clipPath id="P"><use overflow="visible" xlink:href="#O"></use></clipPath><g clip-path="url(#P)"><path fill="#7d7f80" d="m49.68 20.44-4.21-2.29c.02-.06.04-.13.06-.19.09-.3.13-.63.14-.98 0-.34-.04-.63-.14-.88-.1-.26-.22-.48-.38-.66-.13-.14-.28-.26-.45-.35l4.21 2.29c.17.09.32.21.45.35.16.18.29.4.38.66.1.25.14.55.14.88 0 .35-.05.68-.14.98-.01.06-.04.13-.06.19"></path></g><defs><path id="Q" d="m47.53 20.69-4.21-2.29c.13-.14.23-.3.3-.47l4.21 2.29c-.07.17-.17.33-.3.47z"></path></defs><clipPath id="R"><use overflow="visible" xlink:href="#Q"></use></clipPath><g clip-path="url(#R)"><path fill="#863e38" d="m47.53 20.69-4.21-2.29c.01-.01.01-.02.02-.02l4.22 2.29c-.02 0-.02.01-.03.02"></path><path fill="#823c36" d="m47.55 20.66-4.22-2.29.12-.15 4.22 2.29c-.04.06-.08.11-.12.15"></path><path fill="#7d3a34" d="m47.67 20.52-4.22-2.29c.04-.05.07-.11.1-.16l4.21 2.29c-.02.05-.06.11-.09.16"></path><path fill="#773832" d="m47.77 20.36-4.21-2.29c.02-.05.05-.09.07-.14l4.21 2.29a.61.61 0 0 0-.07.14"></path></g><defs><path id="S" d="m46.22 22.76-4.21-2.29c.37-.05.7-.13 1.01-.22.3-.09.58-.2.84-.34l4.21 2.29c-.27.14-.55.25-.84.34-.3.09-.64.17-1.01.22z"></path></defs><clipPath id="T"><use overflow="visible" xlink:href="#S"></use></clipPath><g clip-path="url(#T)"><path fill="#9d9fa2" d="m46.22 22.76-4.21-2.29c.37-.05.7-.13 1.01-.22.23-.07.46-.15.67-.25l4.21 2.29c-.21.1-.44.18-.67.25-.3.09-.64.17-1.01.22"></path><path fill="#999b9d" d="m47.9 22.28-4.21-2.29.18-.09 4.21 2.29-.18.09"></path></g><defs><path id="U" d="m47.07 21.01-4.22-2.29c.17-.08.33-.19.46-.32l4.21 2.29c-.12.13-.28.24-.45.32z"></path></defs><clipPath id="V"><use overflow="visible" xlink:href="#U"></use></clipPath><g clip-path="url(#V)"><path fill="#93433d" d="m47.07 21.01-4.21-2.29v-.01l4.21 2.3"></path><path fill="#8e423b" d="m47.07 21.01-4.22-2.29c.08-.04.16-.08.23-.13l4.21 2.29c-.06.04-.13.09-.22.13"></path><path fill="#8a4039" d="m47.31 20.87-4.21-2.29c.06-.04.12-.09.17-.13l4.21 2.29c-.06.05-.11.09-.17.13"></path><path fill="#863e38" d="m47.48 20.74-4.21-2.29c.02-.02.04-.03.05-.05l4.21 2.29c-.02.01-.03.03-.05.05"></path></g><defs><path id="W" d="M45.14 15.44c-.13-.14-.28-.26-.45-.35l4.21 2.29c.17.09.32.21.45.35-.7-.38-1.4-.76-2.11-1.15-.36-.2-.73-.4-1.09-.59-.16-.09-.37-.2-.52-.28-.14-.09-.36-.17-.49-.27z"></path></defs><clipPath id="X"><use overflow="visible" xlink:href="#W"></use></clipPath><g clip-path="url(#X)"><path fill="#7d7f80" d="m49.68 20.44-4.21-2.29c.02-.06.04-.13.06-.19.09-.3.13-.63.14-.98 0-.34-.04-.63-.14-.88-.1-.26-.22-.48-.38-.66-.13-.14-.28-.26-.45-.35l4.21 2.29c.17.09.32.21.45.35.16.18.29.4.38.66.1.25.14.55.14.88 0 .35-.05.68-.14.98-.01.06-.04.13-.06.19"></path></g><defs><path id="Y" d="m47.83 20.21-4.21-2.29c.07-.18.11-.38.11-.6 0-.23-.04-.43-.11-.6l4.21 2.29c.07.17.11.37.11.6.01.22-.03.43-.11.6z"></path></defs><clipPath id="Z"><use overflow="visible" xlink:href="#Y"></use></clipPath><g clip-path="url(#Z)"><path fill="#773832" d="m47.83 20.21-4.21-2.29c.01-.02.01-.03.02-.05l4.21 2.29c0 .02-.01.04-.02.05"></path><path fill="#743631" d="m47.85 20.16-4.21-2.29c.06-.17.09-.35.09-.55 0-.23-.04-.43-.11-.6l4.21 2.29c.07.17.11.37.11.6.01.2-.02.39-.09.55"></path></g><defs><path id="aa" d="M46.41 21.19 42.2 18.9c.26-.04.48-.09.66-.18l4.22 2.29c-.19.09-.41.14-.67.18z"></path></defs><clipPath id="ab"><use overflow="visible" xlink:href="#aa"></use></clipPath><g clip-path="url(#ab)"><path fill="#93433d" d="M46.41 21.19 42.2 18.9c.25-.03.46-.09.63-.17l4.22 2.29c-.18.08-.39.13-.64.17"></path><path fill="#8e423b" d="m47.05 21.02-4.22-2.29c.01 0 .02-.01.03-.01l4.22 2.29c-.02 0-.03.01-.03.01"></path></g><defs><path id="ac" d="m49 16.24-4.21-2.29c.11-.19.19-.39.25-.61l4.21 2.29c-.05.21-.13.42-.25.61z"></path></defs><clipPath id="ad"><use overflow="visible" xlink:href="#ac"></use></clipPath><g clip-path="url(#ad)"><path fill="#868889" d="m49 16.24-4.21-2.29c.01-.02.03-.05.04-.07l4.21 2.29c-.01.02-.02.04-.04.07"></path><path fill="#818484" d="m49.04 16.17-4.21-2.29c.06-.1.1-.21.14-.32l4.22 2.29c-.04.11-.09.22-.15.32"></path><path fill="#7d7f80" d="m49.19 15.85-4.22-2.29c.03-.07.05-.15.07-.22l4.21 2.29c-.01.07-.04.15-.06.22"></path></g><defs><path id="ae" d="m47.84 19.01-4.21-2.29a.916.916 0 0 0-.31-.41l4.22 2.29c.13.1.23.24.3.41z"></path></defs><clipPath id="af"><use overflow="visible" xlink:href="#ae"></use></clipPath><g clip-path="url(#af)"><path fill="#743631" d="m47.84 19.01-4.21-2.29a.916.916 0 0 0-.31-.41l4.22 2.29c.13.1.23.24.3.41"></path></g><defs><path id="ag" d="m43.2 16.23 4.21 2.29c.04.02.08.05.12.07l-4.22-2.29c-.03-.02-.07-.04-.11-.07z"></path></defs><clipPath id="ah"><use overflow="visible" xlink:href="#ag"></use></clipPath><g clip-path="url(#ah)"><path fill="#743631" d="m47.53 18.6-4.22-2.29a.473.473 0 0 0-.12-.07l4.21 2.29c.05.02.09.05.13.07"></path></g><defs><path id="ai" d="m44.7 15.09 4.21 2.29c-.04-.02-.09-.04-.13-.06-.22-.1-.46-.15-.72-.16l-4.21-2.29c.26.01.5.07.72.16.04.01.08.03.13.06z"></path></defs><clipPath id="aj"><use overflow="visible" xlink:href="#ai"></use></clipPath><g clip-path="url(#aj)"><path fill="#93433d" d="m48.06 17.15-4.21-2.29c.15.01.29.03.43.06l4.22 2.29c-.14-.03-.29-.05-.44-.06"></path><path fill="#8e423b" d="m48.49 17.22-4.22-2.29c.1.03.19.06.29.1.02.01.05.02.07.03l4.22 2.29c-.02-.01-.05-.02-.07-.03a.998.998 0 0 0-.29-.1"></path><path fill="#8a4039" d="m48.85 17.35-4.22-2.29.06.03 4.21 2.29c-.01-.01-.03-.02-.05-.03"></path></g><defs><path id="ak" d="m48.06 17.15-4.21-2.29c.2-.12.39-.25.54-.4.16-.16.3-.33.4-.52l4.21 2.3c-.1.19-.24.36-.4.52-.15.15-.34.28-.54.39z"></path></defs><clipPath id="al"><use overflow="visible" xlink:href="#ak"></use></clipPath><g clip-path="url(#al)"><path fill="#999b9d" d="m48.06 17.15-4.21-2.29.24-.15L48.3 17c-.08.06-.16.11-.24.15"></path><path fill="#949798" d="m48.3 17-4.22-2.29c.09-.06.18-.13.25-.2l4.22 2.29c-.07.07-.16.14-.25.2"></path><path fill="#8f9393" d="m48.55 16.8-4.22-2.29.05-.05c.05-.04.09-.09.13-.14l4.22 2.29c-.04.05-.08.09-.13.14a.12.12 0 0 1-.05.05"></path><path fill="#8c8e8e" d="m48.73 16.62-4.22-2.29c.05-.06.11-.13.15-.19l4.22 2.29c-.04.07-.09.13-.15.19"></path><path fill="#868889" d="m48.89 16.43-4.22-2.29c.04-.06.08-.13.12-.19L49 16.24c-.03.06-.07.13-.11.19"></path></g><defs><path id="am" d="m43.2 16.23 4.21 2.29c-.11-.06-.25-.11-.41-.14l-4.22-2.29c.16.04.3.08.42.14z"></path></defs><clipPath id="an"><use overflow="visible" xlink:href="#am"></use></clipPath><g clip-path="url(#an)"><path fill="#9d9fa2" d="m47 18.39-4.22-2.29c.04.01.08.02.11.03l4.22 2.29c-.03-.02-.07-.02-.11-.03"></path><path fill="#999b9d" d="m47.11 18.41-4.22-2.29c.1.02.18.06.26.09l4.22 2.29c-.08-.03-.16-.06-.26-.09"></path><path fill="#949798" d="m47.37 18.51-4.22-2.29c.01.01.03.01.04.02l4.21 2.29c0-.01-.01-.02-.03-.02"></path></g><path fill="#9d4841" d="m45.06 21.38-4.21-2.29 1.35-.19 4.21 2.29z"></path><defs><path id="ao" d="m49.26 15.63-4.21-2.29c.05-.22.08-.45.08-.69 0-.42-.07-.79-.21-1.09l4.22 2.29c.14.3.21.67.21 1.09-.01.23-.04.46-.09.69z"></path></defs><clipPath id="ap"><use overflow="visible" xlink:href="#ao"></use></clipPath><g clip-path="url(#ap)"><path fill="#7d7f80" d="m49.26 15.63-4.21-2.29c.05-.22.08-.45.08-.69 0-.42-.07-.79-.21-1.09l4.22 2.29c.14.3.21.67.21 1.09-.01.23-.04.46-.09.69"></path></g><path fill="#abadad" d="m43.79 23.1-4.22-2.29 2.44-.35 4.21 2.3z"></path><defs><path id="aq" d="m46.17 18.41-4.21-2.29c.34-.05.62-.06.83-.02L47 18.39c-.21-.04-.49-.03-.83.02z"></path></defs><clipPath id="ar"><use overflow="visible" xlink:href="#aq"></use></clipPath><g clip-path="url(#ar)"><path fill="#9d9fa2" d="m46.17 18.41-4.21-2.29c.34-.05.62-.06.83-.02L47 18.39c-.21-.04-.49-.03-.83.02"></path></g><defs><path id="as" d="m43.46 23.05-4.22-2.29c.09.05.2.07.33.05l4.22 2.29c-.13.02-.24 0-.33-.05z"></path></defs><clipPath id="at"><use overflow="visible" xlink:href="#as"></use></clipPath><g clip-path="url(#at)"><path fill="#949798" d="m43.46 23.05-4.22-2.29c.01 0 .01.01.02.01l4.21 2.29c0-.01 0-.01-.01-.01"></path><path fill="#999b9d" d="m43.48 23.06-4.21-2.29c.03.01.06.03.09.03l4.22 2.29c-.04-.01-.07-.02-.1-.03"></path><path fill="#9d9fa2" d="m43.57 23.09-4.22-2.29c.07.02.14.02.22.01l4.22 2.29c-.08.01-.16.01-.22-.01"></path></g><defs><path id="au" d="m49.13 13.85-4.22-2.29c-.15-.29-.35-.53-.61-.7l4.22 2.29c.27.17.47.4.61.7z"></path></defs><clipPath id="av"><use overflow="visible" xlink:href="#au"></use></clipPath><g clip-path="url(#av)"><path fill="#7d7f80" d="m49.13 13.85-4.22-2.29c-.15-.29-.35-.53-.61-.7l4.22 2.29c.27.17.47.4.61.7"></path></g><defs><path id="aw" d="m44.22 10.81 4.22 2.29c.03.02.06.03.08.05l-4.22-2.29a.218.218 0 0 0-.08-.05z"></path></defs><clipPath id="ax"><use overflow="visible" xlink:href="#aw"></use></clipPath><g clip-path="url(#ax)"><path fill="#7d7f80" d="m48.52 13.15-4.22-2.29c-.03-.02-.05-.03-.08-.05l4.22 2.29c.03.02.05.03.08.05"></path></g><defs><path id="ay" d="m43.46 23.05-4.22-2.29c-.02-.01-.05-.03-.07-.04-.11-.09-.16-.24-.16-.46l4.22 2.29c0 .22.05.38.16.46.03.01.05.02.07.04z"></path></defs><clipPath id="az"><use overflow="visible" xlink:href="#ay"></use></clipPath><g clip-path="url(#az)"><path fill="#743631" d="m43.46 23.05-4.22-2.29c-.02-.01-.05-.03-.07-.04-.11-.09-.16-.24-.16-.46l4.22 2.29c0 .22.05.38.16.46.03.01.05.02.07.04"></path></g><defs><path id="aA" d="m46.12 16.95-4.21-2.29c.27-.04.48-.1.64-.19l4.21 2.29c-.16.09-.38.15-.64.19z"></path></defs><clipPath id="aB"><use overflow="visible" xlink:href="#aA"></use></clipPath><g clip-path="url(#aB)"><path fill="#93433d" d="m46.12 16.95-4.21-2.29c.22-.03.41-.08.56-.15l4.22 2.29c-.16.07-.35.12-.57.15"></path><path fill="#8e423b" d="m46.68 16.8-4.22-2.29c.03-.01.06-.03.08-.04l4.21 2.29c-.02.01-.04.02-.07.04"></path></g><path fill="#7b7d7e" d="m45.06 21.38-4.21-2.29v-2.82l4.22 2.29z"></path><path fill="#abadad" d="m45.07 18.56-4.22-2.29 1.11-.15 4.21 2.29z"></path><defs><path id="aC" d="m46.76 16.75-4.21-2.29c.16-.09.3-.2.4-.34.1-.13.19-.29.24-.46.05-.17.08-.34.08-.52 0-.2-.03-.37-.09-.52a.864.864 0 0 0-.25-.36l4.22 2.29c.11.1.19.21.25.36s.09.32.09.52c0 .18-.03.35-.08.52-.05.17-.13.32-.24.46-.11.14-.25.26-.41.34z"></path></defs><clipPath id="aD"><use overflow="visible" xlink:href="#aC"></use></clipPath><g clip-path="url(#aD)"><path fill="#8e423b" d="m46.76 16.75-4.21-2.29c.04-.02.09-.05.13-.08l4.22 2.29c-.05.03-.1.06-.14.08"></path><path fill="#8a4039" d="m46.89 16.67-4.22-2.29c.04-.03.09-.06.12-.1L47 16.57c-.03.04-.07.07-.11.1"></path><path fill="#863e38" d="m47.01 16.58-4.21-2.29c.03-.03.07-.06.1-.1l4.22 2.29c-.04.03-.07.07-.11.1"></path><path fill="#823c36" d="m47.11 16.48-4.22-2.29c.02-.02.03-.04.05-.06.01-.02.03-.04.04-.05l4.22 2.29c-.01.02-.03.04-.04.05-.02.02-.03.04-.05.06"></path><path fill="#7d3a34" d="m47.2 16.36-4.22-2.29.09-.15 4.21 2.29a.53.53 0 0 1-.08.15"></path><path fill="#773832" d="m47.29 16.22-4.21-2.29c.03-.06.06-.12.08-.19l4.22 2.29c-.03.06-.06.13-.09.19"></path><path fill="#743631" d="m47.38 16.03-4.22-2.29c.01-.02.02-.05.02-.07.05-.17.08-.34.08-.52 0-.2-.03-.37-.09-.52a.864.864 0 0 0-.25-.36l4.22 2.29c.11.1.19.21.25.36s.09.32.09.52c0 .18-.03.35-.08.52-.01.02-.02.05-.02.07"></path></g><defs><path id="aE" d="m42.82 12.2 4.21 2.29c.04.02.07.04.11.07l-4.22-2.29a.36.36 0 0 0-.1-.07z"></path></defs><clipPath id="aF"><use overflow="visible" xlink:href="#aE"></use></clipPath><g clip-path="url(#aF)"><path fill="#743631" d="m47.14 14.56-4.22-2.29c-.03-.03-.07-.05-.11-.07l4.21 2.29c.05.02.09.04.12.07"></path></g><path fill="#9d4841" d="m45.07 17.09-4.21-2.29 1.04-.15 4.22 2.3z"></path><defs><path id="aG" d="m42.82 12.2 4.21 2.29c-.09-.05-.2-.09-.32-.11-.18-.03-.41-.02-.7.02l-4.21-2.3c.29-.04.52-.05.7-.02.12.03.23.06.32.12z"></path></defs><clipPath id="aH"><use overflow="visible" xlink:href="#aG"></use></clipPath><g clip-path="url(#aH)"><path fill="#9d9fa2" d="m46.02 14.4-4.22-2.3c.29-.04.52-.05.7-.02.03.01.06.01.08.02l4.21 2.29c-.03-.01-.06-.01-.08-.02-.18-.02-.4-.02-.69.03"></path><path fill="#999b9d" d="m46.8 14.4-4.21-2.29c.07.02.14.04.2.07L47 14.47c-.06-.03-.13-.05-.2-.07"></path><path fill="#949798" d="m47 14.47-4.22-2.29c.01.01.02.01.03.02l4.21 2.29c0-.01-.01-.01-.02-.02"></path></g><path fill="#abadad" d="m45.08 14.53-4.22-2.3.94-.13 4.22 2.3z"></path><path fill="#7b7d7e" d="m45.07 17.09-4.21-2.29v-2.57l4.22 2.3z"></path><path fill="#c25950" d="M49.74 18.39c.1.25.14.55.14.88 0 .35-.05.68-.14.98s-.22.57-.37.81c-.16.24-.35.46-.57.64-.22.19-.46.36-.73.49-.27.14-.55.25-.84.34-.3.09-.64.17-1.01.22l-2.44.34a.503.503 0 0 1-.39-.1c-.11-.09-.16-.24-.16-.46l.02-8.63c0-.22.05-.4.16-.51.1-.12.24-.19.39-.21l2.3-.32a5.96 5.96 0 0 1 1.43-.05c.39.05.72.16.98.33.27.17.47.41.61.7.14.3.21.67.21 1.09 0 .24-.03.47-.08.69-.06.22-.14.42-.25.61-.1.19-.24.36-.4.52-.16.15-.34.28-.54.4.26.01.5.07.72.16.22.1.41.24.58.41.16.19.29.41.38.67zm-1.91 1.82c.07-.18.11-.38.11-.6 0-.23-.04-.43-.11-.6a.916.916 0 0 0-.31-.41c-.13-.1-.31-.17-.53-.21-.21-.03-.49-.03-.83.02l-1.1.16-.01 2.81 1.35-.19c.26-.04.48-.09.66-.18.17-.08.33-.19.46-.32.14-.14.24-.3.31-.48m-2.75-5.68v2.57l1.04-.15c.27-.04.48-.1.64-.19.16-.09.3-.2.4-.34.1-.13.19-.29.24-.46.05-.17.08-.34.08-.52 0-.2-.03-.37-.09-.52a.864.864 0 0 0-.25-.36.983.983 0 0 0-.43-.18c-.18-.03-.41-.02-.7.02l-.93.13"></path><path fill="#d2d5d7" d="M47.07 21.01c-.18.09-.4.14-.66.18l-1.35.19.01-2.81 1.1-.16c.34-.05.62-.06.83-.02.21.04.39.11.53.21.14.1.24.24.31.41.07.17.11.37.11.6a1.513 1.513 0 0 1-.41 1.07c-.14.14-.3.25-.47.33z"></path><defs><path id="aI" d="m44.22 10.81 4.22 2.29c-.25-.14-.56-.23-.9-.28l-4.21-2.29c.34.04.64.14.89.28z"></path></defs><clipPath id="aJ"><use overflow="visible" xlink:href="#aI"></use></clipPath><g clip-path="url(#aJ)"><path fill="#93433d" d="m47.54 12.82-4.21-2.29c.13.02.25.04.37.07l4.22 2.29c-.13-.03-.25-.05-.38-.07"></path><path fill="#8e423b" d="m47.91 12.89-4.22-2.29c.17.04.32.1.46.17l4.22 2.29c-.15-.07-.3-.12-.46-.17"></path><path fill="#8a4039" d="m48.36 13.06-4.22-2.29c.03.01.05.03.07.04l4.22 2.29c-.02-.01-.04-.03-.07-.04"></path></g><defs><path id="aK" d="m46.11 12.87-4.21-2.29a5.96 5.96 0 0 1 1.43-.05l4.21 2.29a5.96 5.96 0 0 0-1.43.05z"></path></defs><clipPath id="aL"><use overflow="visible" xlink:href="#aK"></use></clipPath><g clip-path="url(#aL)"><path fill="#93433d" d="m46.11 12.87-4.21-2.29a5.96 5.96 0 0 1 1.43-.05l4.21 2.29a5.96 5.96 0 0 0-1.43.05"></path></g><path fill="#9d4841" d="m43.8 13.2-4.21-2.3 2.3-.32 4.22 2.29z"></path><path fill="#713530" d="m43.23 22.54-4.21-2.29.01-8.63 4.22 2.29z"></path><defs><path id="aM" d="m43.41 13.4-4.22-2.29c.1-.12.24-.19.39-.21l4.22 2.29c-.15.03-.28.09-.39.21z"></path></defs><clipPath id="aN"><use overflow="visible" xlink:href="#aM"></use></clipPath><g clip-path="url(#aN)"><path fill="#823c36" d="m43.41 13.4-4.21-2.29 4.21 2.29"></path><path fill="#863e38" d="m43.41 13.4-4.21-2.29c.02-.02.03-.04.05-.05l4.21 2.29c-.01.02-.03.03-.05.05"></path><path fill="#8a4039" d="m43.46 13.35-4.21-2.29c.02-.02.04-.03.06-.05l4.22 2.29c-.03.02-.05.03-.07.05"></path><path fill="#8e423b" d="m43.53 13.3-4.22-2.29c.03-.02.06-.04.09-.05l4.21 2.29c-.03.02-.06.03-.08.05"></path><path fill="#93433d" d="m43.61 13.25-4.21-2.29c.06-.03.13-.05.19-.06l4.22 2.29c-.07.02-.14.03-.2.06"></path></g><defs><path id="aO" d="m43.25 13.91-4.22-2.29c0-.22.05-.4.16-.51l4.22 2.29c-.11.11-.16.29-.16.51z"></path></defs><clipPath id="aP"><use overflow="visible" xlink:href="#aO"></use></clipPath><g clip-path="url(#aP)"><path fill="#743631" d="m43.25 13.91-4.22-2.29c0-.13.02-.23.05-.33l4.21 2.29c-.03.1-.04.21-.04.33"></path><path fill="#773832" d="m43.3 13.59-4.21-2.29c.01-.03.02-.05.03-.07l4.22 2.29c-.02.02-.03.04-.04.07"></path><path fill="#7d3a34" d="m43.33 13.51-4.22-2.29c.01-.02.02-.03.03-.05l4.22 2.29c-.01.02-.02.03-.03.05"></path><path fill="#823c36" d="m43.36 13.46-4.22-2.29c.01-.01.02-.03.03-.04l4.21 2.29c0 .01-.01.03-.02.04"></path><path fill="#863e38" d="m43.39 13.42-4.21-2.29.02-.02 4.22 2.29c-.01.01-.02.02-.03.02"></path></g><defs><path id="aQ" d="m32.33 19.56 4.21 2.29c.23.13.38.38.38.7 0 .49-.37.94-.82 1l-4.21-2.29c.45-.06.82-.52.82-1a.767.767 0 0 0-.38-.7z"></path></defs><clipPath id="aR"><use overflow="visible" xlink:href="#aQ"></use></clipPath><g clip-path="url(#aR)"><path fill="#9d9fa2" d="m36.11 23.56-4.21-2.29c.08-.01.16-.04.24-.07l4.22 2.29c-.09.03-.17.05-.25.07"></path><path fill="#999b9d" d="m36.35 23.48-4.22-2.29c.05-.02.09-.05.13-.08l4.21 2.29c-.03.04-.08.06-.12.08"></path><path fill="#949798" d="m36.48 23.41-4.21-2.29a.7.7 0 0 0 .1-.08l4.21 2.29c-.03.03-.07.05-.1.08"></path><path fill="#8f9393" d="m36.58 23.33-4.21-2.29c.03-.03.06-.06.08-.09l4.22 2.29-.09.09"></path><path fill="#8c8e8e" d="m36.66 23.24-4.22-2.29a.55.55 0 0 0 .07-.09l4.22 2.29a.55.55 0 0 1-.07.09"></path><path fill="#868889" d="m36.74 23.15-4.22-2.29c.02-.03.05-.07.07-.11l4.21 2.29c-.02.04-.04.07-.06.11"></path><path fill="#818484" d="m36.81 23.04-4.21-2.29c.02-.04.04-.09.06-.14l4.22 2.29c-.03.05-.05.09-.07.14"></path><path fill="#7d7f80" d="m36.87 22.9-4.22-2.29c.04-.11.06-.23.06-.35 0-.31-.15-.57-.38-.7l4.22 2.29c.23.13.38.38.38.7 0 .12-.02.24-.06.35"></path></g><defs><path id="aS" d="m32.33 19.56 4.22 2.29a.727.727 0 0 0-.44-.08l-4.22-2.29c.17-.01.32.02.44.08z"></path></defs><clipPath id="aT"><use overflow="visible" xlink:href="#aS"></use></clipPath><g clip-path="url(#aT)"><path fill="#3c869e" d="m36.11 21.78-4.22-2.29c.1-.01.19-.01.28.01l4.21 2.29a.796.796 0 0 0-.27-.01"></path><path fill="#3b8399" d="m36.39 21.8-4.21-2.29c.05.01.09.03.13.05l4.21 2.29a.295.295 0 0 0-.13-.05"></path><path fill="#397f95" d="m36.52 21.84-4.21-2.29c.01 0 .02.01.03.01l4.22 2.29c-.02 0-.03 0-.04-.01"></path></g><defs><path id="aU" d="M31.9 14.38c.45-.06.82-.52.82-1 1.41.76 2.81 1.53 4.22 2.29 0 .49-.37.94-.82 1-1.26-.68-2.95-1.6-4.22-2.29z"></path></defs><clipPath id="aV"><use overflow="visible" xlink:href="#aU"></use></clipPath><g clip-path="url(#aV)"><path fill="#9d9fa2" d="m36.12 16.67-4.21-2.29c.08-.01.16-.04.24-.07l4.22 2.29a.86.86 0 0 1-.25.07"></path><path fill="#999b9d" d="m36.36 16.6-4.22-2.29c.05-.02.09-.05.13-.08l4.22 2.29c-.04.03-.09.06-.13.08"></path><path fill="#949798" d="m36.49 16.52-4.22-2.29a.7.7 0 0 0 .1-.08l4.22 2.29c-.03.03-.06.06-.1.08"></path><path fill="#8f9393" d="m36.59 16.45-4.22-2.29c.03-.03.06-.06.08-.09l4.21 2.29c-.01.03-.04.06-.07.09"></path><path fill="#8c8e8e" d="m36.68 16.36-4.21-2.29a.55.55 0 0 0 .07-.09l4.22 2.29c-.03.03-.06.06-.08.09"></path><path fill="#868889" d="m36.75 16.27-4.22-2.29c.02-.03.05-.07.07-.11l4.22 2.29c-.02.03-.04.07-.07.11"></path><path fill="#818484" d="m36.82 16.16-4.22-2.29c.02-.04.05-.09.06-.14l4.21 2.29c-.01.04-.03.09-.05.14"></path><path fill="#7d7f80" d="m36.88 16.02-4.21-2.29c.04-.11.06-.23.06-.35 0-.31-.15-.57-.38-.7l4.22 2.29c.23.13.38.38.38.7-.01.12-.03.24-.07.35"></path></g><defs><path id="aW" d="M32.73 13.38c0-.31-.15-.57-.38-.7l4.22 2.29c.23.13.38.38.38.7-1.41-.76-2.82-1.53-4.22-2.29z"></path></defs><clipPath id="aX"><use overflow="visible" xlink:href="#aW"></use></clipPath><g clip-path="url(#aX)"><path fill="#7d7f80" d="m36.88 16.02-4.21-2.29c.04-.11.06-.23.06-.35 0-.31-.15-.57-.38-.7l4.22 2.29c.23.13.38.38.38.7-.01.12-.03.24-.07.35"></path></g><defs><path id="aY" d="m32.35 12.68 4.22 2.29a.727.727 0 0 0-.44-.08l-4.21-2.29c.15-.02.3.01.43.08z"></path></defs><clipPath id="aZ"><use overflow="visible" xlink:href="#aY"></use></clipPath><g clip-path="url(#aZ)"><path fill="#3c869e" d="m36.12 14.9-4.21-2.29c.1-.01.19-.01.28.01l4.21 2.29a.65.65 0 0 0-.28-.01"></path><path fill="#3b8399" d="m36.4 14.91-4.21-2.29c.05.01.09.03.13.05l4.21 2.29a.502.502 0 0 0-.13-.05"></path><path fill="#397f95" d="m36.54 14.96-4.21-2.29c.01 0 .02.01.03.01l4.22 2.29c-.03 0-.04 0-.04-.01"></path></g><path fill="#abadad" d="m23.95 32.15-4.22-2.3 28.61-4.02 4.21 2.3z"></path><path fill="#6b6868" d="m25.58 31.86-4.21-2.29.35-1.77 4.22 2.29z"></path><path fill="#8d8888" d="m25.94 30.09-4.22-2.29 26.62-3.74 4.21 2.29z"></path><path fill="#354045" d="m25.58 31.86-4.21-2.29-.79-.75 4.21 2.3z"></path><path fill="#aea9a9" d="M52.55 26.35c.45-.06.82.28.82.77 0 .5-.37.94-.82 1l-28.6 4.02.84-1.03.79.74.36-1.77 26.61-3.73z"></path><path fill="#7d7b7b" d="m23.95 32.15-4.22-2.3.85-1.03 4.21 2.3z"></path><path fill="#808284" d="m25.94 30.09-4.22-2.29.58-2.88 4.22 2.29z"></path><path fill="#979a9b" d="m22.18 34.3-4.21-2.29 1.76-2.16 4.22 2.3z"></path><path fill="#435057" d="m22.25 30.61-4.21-2.29.87-1.06 4.21 2.29z"></path><path fill="#435057" d="m20.61 32.62-4.22-2.3 1.65-2 4.21 2.29z"></path><path fill="#435057" d="m20.51 32.73-4.21-2.29.09-.12 4.22 2.3z"></path><path fill="#354045" d="m22.18 34.3-4.21-2.29-1.67-1.57 4.21 2.29z"></path><path fill="#5c6e76" d="m26.52 27.21-.58 2.88-.36 1.77-.79-.74-.84 1.03-1.77 2.15-1.67-1.57.1-.11 1.64-2.01.87-1.06-.79-.74z"></path><path fill="#354045" d="m23.12 29.55-4.21-2.29-.79-.74 4.21 2.29z"></path><path fill="#4a5960" d="m22.33 28.81-4.21-2.29 4.18-1.6 4.22 2.29z"></path><path fill="#abadad" d="m15.65 40.19-4.22-2.29 36.89-5.18 4.22 2.29z"></path><defs><path id="ba" d="M10.98 37.82c.13.07.28.1.45.08l4.21 2.29a.745.745 0 0 1-.45-.08c-1.26-.68-2.94-1.6-4.21-2.29z"></path></defs><clipPath id="bb"><use overflow="visible" xlink:href="#ba"></use></clipPath><g clip-path="url(#bb)"><path fill="#949798" d="m15.2 40.12-4.22-2.29c.01 0 .02.01.03.01l4.21 2.29c-.01 0-.01-.01-.02-.01"></path><path fill="#999b9d" d="m15.22 40.13-4.21-2.29c.04.02.09.04.13.05l4.21 2.29a.694.694 0 0 1-.13-.05"></path><path fill="#9d9fa2" d="m15.35 40.18-4.21-2.29c.09.02.19.03.29.01l4.21 2.29a.71.71 0 0 1-.29-.01"></path></g><path fill="#8d8888" d="m15.65 38.42-4.21-2.29 36.89-5.19 4.21 2.29z"></path><path fill="#3a4d52" d="M11.42 45.66 7.2 43.37 52.54 37l4.21 2.29z"></path><defs><path id="bc" d="m15.2 40.12-4.22-2.29c-.23-.12-.38-.38-.38-.69 0-.49.37-.94.83-1l4.22 2.29c-.46.06-.83.52-.83 1 0 .31.15.56.38.69z"></path></defs><clipPath id="bd"><use overflow="visible" xlink:href="#bc"></use></clipPath><g clip-path="url(#bd)"><path fill="#686565" d="m15.2 40.12-4.21-2.29c-.23-.12-.38-.38-.38-.69 0-.12.02-.24.06-.35l4.21 2.29c-.04.11-.06.23-.06.35 0 .31.15.56.38.69"></path><path fill="#6c6969" d="m14.88 39.08-4.21-2.29c.02-.05.04-.09.06-.14l4.22 2.29c-.03.04-.05.09-.07.14"></path><path fill="#706d6d" d="m14.94 38.94-4.22-2.29c.02-.04.04-.07.07-.11l4.22 2.29c-.02.03-.05.07-.07.11"></path><path fill="#747171" d="m15.01 38.83-4.22-2.29c.02-.03.05-.06.07-.09l4.21 2.29c-.01.03-.04.06-.06.09"></path><path fill="#787575" d="m15.09 38.74-4.21-2.29c.03-.03.05-.06.08-.09l4.21 2.29c-.03.03-.06.06-.08.09"></path><path fill="#7c7979" d="m15.17 38.65-4.21-2.29a.7.7 0 0 1 .1-.08l4.22 2.29c-.04.02-.08.05-.11.08"></path><path fill="#807d7d" d="m15.27 38.57-4.22-2.29c.04-.03.09-.06.14-.08l4.21 2.29c-.04.02-.09.05-.13.08"></path><path fill="#848080" d="M15.41 38.49 11.2 36.2c.08-.04.16-.06.24-.07l4.22 2.29c-.09.01-.18.04-.25.07"></path></g><path fill="#aea9a9" d="M52.54 33.23c.45-.06.82.28.82.77 0 .5-.37.94-.82 1l-36.89 5.18c-.46.06-.83-.28-.83-.77s.37-.94.83-1l36.89-5.18z"></path><defs><path id="be" d="m11.1 45.61-4.22-2.29c.09.05.2.07.31.05l4.22 2.29c-.11.02-.22 0-.31-.05z"></path></defs><clipPath id="bf"><use overflow="visible" xlink:href="#be"></use></clipPath><g clip-path="url(#bf)"><path fill="#334448" d="m11.1 45.61-4.22-2.29c.01 0 .01.01.02.01l4.21 2.29s0-.01-.01-.01"></path><path fill="#34464a" d="m11.12 45.62-4.21-2.29c.03.01.06.03.09.03l4.22 2.29c-.04 0-.07-.02-.1-.03"></path><path fill="#36484c" d="M11.21 45.65 7 43.36c.06.02.13.02.2.01l4.22 2.29a.49.49 0 0 1-.21-.01"></path></g><defs><path id="bg" d="m11.1 45.61-4.22-2.29a.527.527 0 0 1-.26-.48l4.22 2.29c0 .22.1.39.26.48z"></path></defs><clipPath id="bh"><use overflow="visible" xlink:href="#bg"></use></clipPath><g clip-path="url(#bh)"><path fill="#7d7f80" d="m11.1 45.61-4.22-2.29a.527.527 0 0 1-.26-.48l4.22 2.29c0 .22.1.39.26.48"></path></g><path fill="#abadad" d="m15.66 33.31-4.22-2.29 4.95-.7 4.22 2.3z"></path><defs><path id="bi" d="M11 30.94c.13.07.28.1.45.08l4.21 2.29a.745.745 0 0 1-.45-.08c-1.26-.68-2.95-1.6-4.21-2.29z"></path></defs><clipPath id="bj"><use overflow="visible" xlink:href="#bi"></use></clipPath><g clip-path="url(#bj)"><path fill="#949798" d="M15.21 33.23 11 30.94c.01 0 .02.01.03.01l4.22 2.29c-.02 0-.03 0-.04-.01"></path><path fill="#999b9d" d="m15.24 33.25-4.22-2.29c.04.02.09.04.13.05l4.22 2.29c-.05-.02-.09-.03-.13-.05"></path><path fill="#9d9fa2" d="M15.37 33.3 11.15 31c.09.02.19.03.29.01l4.21 2.29c-.09.03-.19.02-.28 0"></path></g><path fill="#8d8888" d="m15.66 31.54-4.21-2.3 6.59-.92 4.21 2.29z"></path><defs><path id="bk" d="M15.21 33.23 11 30.94c-.23-.12-.38-.38-.38-.69l4.22 2.29c-.01.32.14.57.37.69z"></path></defs><clipPath id="bl"><use overflow="visible" xlink:href="#bk"></use></clipPath><g clip-path="url(#bl)"><path fill="#686565" d="M15.21 33.23 11 30.94c-.23-.12-.38-.38-.38-.69l4.22 2.29c-.01.32.14.57.37.69"></path></g><defs><path id="bm" d="m14.83 32.54-4.22-2.29c0-.49.37-.94.83-1l4.22 2.29c-.46.06-.83.51-.83 1z"></path></defs><clipPath id="bn"><use overflow="visible" xlink:href="#bm"></use></clipPath><g clip-path="url(#bn)"><path fill="#686565" d="m14.83 32.54-4.22-2.29c0-.12.02-.24.06-.35l4.22 2.29c-.04.11-.06.23-.06.35"></path><path fill="#6c6969" d="m14.89 32.19-4.22-2.29c.02-.05.04-.09.06-.14l4.22 2.29c-.02.05-.04.1-.06.14"></path><path fill="#706d6d" d="m14.96 32.06-4.22-2.29c.02-.04.04-.07.07-.11l4.22 2.29c-.03.03-.05.07-.07.11"></path><path fill="#747171" d="m15.02 31.95-4.22-2.29c.02-.03.05-.06.07-.09l4.21 2.29c-.01.02-.03.05-.06.09"></path><path fill="#787575" d="m15.1 31.85-4.21-2.29c.03-.03.05-.06.08-.09l4.22 2.29c-.04.03-.06.06-.09.09"></path><path fill="#7c7979" d="m15.18 31.77-4.22-2.29a.7.7 0 0 1 .1-.08l4.22 2.29a.7.7 0 0 0-.1.08"></path><path fill="#807d7d" d="m15.28 31.69-4.22-2.29c.04-.03.09-.06.14-.08l4.21 2.29c-.04.02-.08.05-.13.08"></path><path fill="#848080" d="m15.42 31.61-4.21-2.29c.08-.04.16-.06.24-.07l4.22 2.29c-.09.01-.17.03-.25.07"></path></g><path fill="#abadad" d="m15.67 26.43-4.21-2.29 20.43-2.88 4.22 2.3z"></path><defs><path id="bo" d="M11.01 24.06c.13.07.28.1.45.08l4.22 2.29a.76.76 0 0 1-.45-.08l-4.22-2.29z"></path></defs><clipPath id="bp"><use overflow="visible" xlink:href="#bo"></use></clipPath><g clip-path="url(#bp)"><path fill="#949798" d="m15.23 26.35-4.21-2.29c.01 0 .02.01.03.01l4.22 2.29c-.03 0-.03 0-.04-.01"></path><path fill="#999b9d" d="m15.25 26.36-4.22-2.29c.04.02.09.04.13.05l4.22 2.29c-.04-.01-.09-.02-.13-.05"></path><path fill="#9d9fa2" d="m15.38 26.41-4.22-2.29c.09.02.19.03.29.01l4.22 2.29c-.1.02-.2.02-.29-.01"></path></g><path fill="#418fa9" d="m15.68 24.65-4.22-2.29 20.44-2.87 4.21 2.29z"></path><defs><path id="bq" d="m15.23 26.35-4.21-2.29a.77.77 0 0 1-.38-.69c0-.49.37-.94.83-1l4.21 2.29c-.46.06-.83.52-.83 1-.01.31.15.57.38.69z"></path></defs><clipPath id="br"><use overflow="visible" xlink:href="#bq"></use></clipPath><g clip-path="url(#br)"><path fill="#316b7d" d="m15.23 26.35-4.21-2.29a.77.77 0 0 1-.38-.69c0-.12.02-.24.06-.35l4.22 2.29c-.04.11-.06.23-.06.35-.02.31.14.57.37.69"></path><path fill="#336f82" d="m14.91 25.31-4.22-2.29c.02-.05.04-.09.06-.14l4.22 2.29c-.02.05-.05.09-.06.14"></path><path fill="#357387" d="m14.97 25.17-4.22-2.29c.02-.04.04-.07.07-.11l4.22 2.29c-.03.04-.05.08-.07.11"></path><path fill="#36778c" d="m15.04 25.06-4.22-2.29c.02-.03.05-.06.07-.09l4.21 2.29-.06.09"></path><path fill="#387b90" d="m15.11 24.97-4.21-2.29c.03-.03.05-.06.08-.09l4.21 2.29c-.02.03-.05.06-.08.09"></path><path fill="#397f95" d="m15.2 24.88-4.21-2.29a.7.7 0 0 1 .1-.08l4.22 2.29c-.05.03-.08.06-.11.08"></path><path fill="#3b8399" d="m15.3 24.8-4.22-2.29c.04-.03.09-.06.14-.08l4.21 2.29c-.05.03-.09.06-.13.08"></path><path fill="#3c869e" d="m15.43 24.73-4.21-2.29c.08-.04.16-.06.24-.07l4.21 2.29c-.08.01-.16.03-.24.07"></path></g><path fill="#abadad" d="m15.69 19.55-4.22-2.3 20.43-2.87 4.22 2.29z"></path><defs><path id="bs" d="M11.15 17.23c.1.03.21.04.32.02l4.22 2.29c-.11.02-.22.01-.32-.02-1.41-.76-2.82-1.53-4.22-2.29z"></path></defs><clipPath id="bt"><use overflow="visible" xlink:href="#bs"></use></clipPath><g clip-path="url(#bt)"><path fill="#999b9d" d="m15.27 19.48-4.22-2.29c.04.02.09.04.13.05l4.21 2.29c-.04-.01-.08-.03-.12-.05"></path><path fill="#9d9fa2" d="m15.4 19.53-4.21-2.29c.09.02.19.03.29.01l4.22 2.29c-.12.02-.21.01-.3-.01"></path></g><defs><path id="bu" d="M11.15 17.23c.09.04.17.09.25.14l.27.15c.18.1.35.19.53.29 1.05.57 2.11 1.15 3.16 1.72a.612.612 0 0 1-.12-.05l-4.21-2.29c.03.01.07.02.12.04z"></path></defs><clipPath id="bv"><use overflow="visible" xlink:href="#bu"></use></clipPath><g clip-path="url(#bv)"><path fill="#949798" d="m15.24 19.47-4.21-2.29c.01 0 .02.01.03.01l4.22 2.29c-.02 0-.03-.01-.04-.01"></path><path fill="#999b9d" d="m15.27 19.48-4.22-2.29c.04.02.09.04.13.05l4.21 2.29c-.04-.01-.08-.03-.12-.05"></path></g><path fill="#418fa9" d="m15.69 17.77-4.22-2.29 20.44-2.87 4.21 2.29z"></path><defs><path id="bw" d="m15.24 19.47-4.21-2.29a.77.77 0 0 1-.38-.69c0-.49.37-.94.83-1l4.22 2.29c-.46.06-.83.52-.83 1-.01.31.14.56.37.69z"></path></defs><clipPath id="bx"><use overflow="visible" xlink:href="#bw"></use></clipPath><g clip-path="url(#bx)"><path fill="#316b7d" d="m15.24 19.47-4.21-2.29a.77.77 0 0 1-.38-.69c0-.12.02-.24.06-.35l4.21 2.29c-.04.11-.06.23-.06.35 0 .31.15.56.38.69"></path><path fill="#336f82" d="m14.92 18.43-4.21-2.29c.02-.05.04-.09.06-.14l4.21 2.29c-.02.04-.04.09-.06.14"></path><path fill="#357387" d="M14.98 18.29 10.77 16c.02-.04.04-.07.07-.11l4.21 2.29c-.02.04-.05.07-.07.11"></path><path fill="#36778c" d="m15.05 18.18-4.21-2.29c.02-.03.05-.06.07-.09l4.22 2.29c-.03.03-.06.06-.08.09"></path><path fill="#387b90" d="M15.12 18.09 10.9 15.8c.03-.03.05-.06.08-.09L15.21 18l-.09.09"></path><path fill="#397f95" d="m15.21 18-4.22-2.29a.7.7 0 0 1 .1-.08l4.22 2.29c-.04.03-.07.05-.1.08"></path><path fill="#3b8399" d="m15.31 17.92-4.22-2.29c.04-.03.09-.06.14-.08l4.21 2.29c-.04.03-.09.05-.13.08"></path><path fill="#3c869e" d="m15.44 17.84-4.21-2.29c.08-.04.16-.06.24-.07l4.22 2.29c-.09.01-.17.04-.25.07"></path></g><path fill="#abadad" d="m11.48 11.98-4.22-2.3L52.6 3.31l4.21 2.3z"></path><path fill="#7b7d7e" d="m10.84 45.13-4.22-2.29.06-32.46 4.22 2.29z"></path><defs><path id="by" d="m10.9 12.67-4.22-2.29c0-.34.26-.65.58-.7l4.21 2.29c-.31.05-.57.37-.57.7z"></path></defs><clipPath id="bz"><use overflow="visible" xlink:href="#by"></use></clipPath><g clip-path="url(#bz)"><path fill="#7d7f80" d="m10.9 12.67-4.22-2.29c0-.08.02-.16.04-.24l4.22 2.29c-.02.08-.04.16-.04.24"></path><path fill="#818484" d="m10.94 12.44-4.22-2.29c.01-.03.03-.07.04-.1l4.22 2.29c-.01.03-.02.06-.04.1"></path><path fill="#868889" d="m10.99 12.34-4.22-2.29c.02-.03.03-.05.05-.08l4.21 2.29c-.01.03-.03.05-.04.08"></path><path fill="#8c8e8e" d="M11.03 12.26 6.82 9.97c.01-.02.03-.04.05-.07l4.22 2.29c-.02.03-.04.05-.06.07"></path><path fill="#8f9393" d="M11.09 12.2 6.87 9.9l.06-.06 4.21 2.29c-.02.03-.04.05-.05.07"></path><path fill="#949798" d="m11.14 12.14-4.21-2.3c.02-.02.05-.03.07-.05l4.21 2.29c-.02.02-.04.04-.07.06"></path><path fill="#999b9d" d="M11.22 12.08 7 9.79c.03-.02.06-.04.09-.05l4.22 2.29c-.03.01-.06.03-.09.05"></path><path fill="#9d9fa2" d="m11.31 12.03-4.22-2.3c.05-.03.11-.04.17-.05l4.21 2.29c-.05.01-.11.03-.16.06"></path></g><path fill="#475f65" d="M57.98 2.32c1.38-.19 2.5.86 2.5 2.35l-.07 37.24-52.67 7.4.07-37.24c0-1.49 1.12-2.86 2.51-3.05l47.66-6.7zm-.66 36.28.06-32.46c0-.34-.25-.58-.57-.54l-45.34 6.37c-.32.04-.58.36-.58.7l-.06 32.46c0 .34.26.58.58.53l45.34-6.37c.32-.04.57-.35.57-.69"></path><path fill="#d2d5d7" d="M46.76 16.75c-.16.09-.38.16-.64.19l-1.04.15v-2.57l.94-.13c.29-.04.52-.05.7-.02.17.03.31.09.43.18.11.1.19.21.25.36s.09.32.09.52c0 .18-.03.35-.08.52-.05.17-.13.32-.24.46-.11.14-.25.26-.41.34z"></path><path fill="#aea9a9" d="M14.83 32.54c0-.49.37-.94.83-1l6.59-.93-1.65 2.01-4.95.7c-.45.06-.82-.28-.82-.78z"></path><path fill="#4eb1d1" d="M36.11 21.78c.45-.06.82.28.82.77s-.37.94-.82 1l-20.43 2.87c-.46.06-.83-.28-.83-.77s.37-.94.83-1l20.43-2.87z"></path><path fill="#d2d5d7" d="M56.81 5.61c.32-.04.57.2.57.54l-.06 32.45c0 .34-.25.65-.57.7l-45.34 6.37c-.32.04-.58-.19-.58-.53l.06-32.46c0-.34.26-.65.58-.7l45.34-6.37zm-4.26 22.52c.45-.06.82-.51.82-1s-.37-.84-.82-.77L25.94 30.1l.58-2.88-4.19 1.6.79.74-.87 1.06-6.59.93c-.46.06-.83.52-.83 1 0 .5.37.84.83.77l4.95-.7-.1.12 1.67 1.57 1.77-2.16 28.6-4.02m-.01 6.88c.45-.06.82-.51.82-1s-.37-.84-.82-.77l-36.89 5.18c-.46.06-.83.52-.83 1 0 .5.37.84.83.77l36.89-5.18m-9.29-21.1-.02 8.63c0 .22.05.38.16.46.1.08.24.12.39.1l2.44-.34c.37-.05.7-.13 1.01-.22.3-.09.58-.2.84-.34.27-.13.5-.3.73-.49a2.906 2.906 0 0 0 .94-1.45c.09-.3.13-.63.14-.98 0-.34-.04-.63-.14-.88-.1-.26-.22-.48-.38-.66-.16-.18-.35-.32-.58-.41-.22-.1-.46-.15-.72-.16.2-.12.39-.25.54-.4.16-.16.3-.33.4-.52.11-.19.19-.39.25-.61.05-.22.08-.45.08-.69 0-.42-.07-.79-.21-1.09-.15-.29-.35-.53-.61-.7-.27-.16-.6-.28-.98-.33a5.96 5.96 0 0 0-1.43.05l-2.3.32c-.16.02-.29.09-.39.21-.11.1-.16.28-.16.5m-27.56 3.86c-.46.06-.83.52-.83 1 0 .49.37.84.83.77l20.43-2.87c.45-.06.82-.52.82-1 0-.49-.37-.84-.82-.77l-20.43 2.87m-.01 6.88c-.46.06-.83.52-.83 1 0 .49.37.84.83.77l20.43-2.87c.45-.06.82-.52.82-1 0-.49-.37-.84-.82-.77l-20.43 2.87"></path><path fill="#4eb1d1" d="M36.12 14.9c.45-.06.82.28.82.77s-.37.94-.82 1l-20.43 2.87c-.46.06-.83-.28-.83-.77s.37-.94.83-1l20.43-2.87z"></path><path fill="#3a4d52" d="M10.32 9.01 6.11 6.72 53.77.02l4.21 2.3z"></path><path fill="#29373a" d="m7.74 49.31-4.21-2.29.07-37.24 4.21 2.29z"></path><defs><path id="bA" d="M7.81 12.07 3.6 9.78c0-1.49 1.12-2.86 2.51-3.05l4.22 2.29c-1.39.19-2.51 1.55-2.52 3.05z"></path></defs><clipPath id="bB"><use overflow="visible" xlink:href="#bA"></use></clipPath><g clip-path="url(#bB)"><path fill="#2b393c" d="M7.81 12.07 3.6 9.78c0-.37.07-.73.19-1.07L8.01 11c-.13.34-.2.7-.2 1.07"></path><path fill="#2c3b3f" d="M8.01 11 3.79 8.71c.05-.14.12-.29.19-.42l4.22 2.29c-.08.14-.14.28-.19.42"></path><path fill="#2e3d41" d="M8.2 10.58 3.98 8.29c.06-.11.13-.22.2-.33l4.22 2.29c-.07.11-.14.22-.2.33"></path><path fill="#2f4043" d="M8.4 10.25 4.18 7.96c.07-.1.14-.19.22-.29l4.22 2.29c-.08.1-.15.19-.22.29"></path><path fill="#314245" d="m8.62 9.97-4.21-2.3c.08-.09.16-.17.25-.25l4.21 2.29c-.08.08-.17.16-.25.26"></path><path fill="#334448" d="M8.88 9.71 4.66 7.42c.1-.09.2-.17.3-.24l4.21 2.29c-.09.07-.2.15-.29.24"></path><path fill="#34464a" d="M9.18 9.47 4.97 7.18c.13-.09.27-.17.41-.23L9.6 9.24c-.15.06-.29.14-.42.23"></path><path fill="#36484c" d="m9.59 9.24-4.22-2.3c.23-.11.48-.18.74-.22l4.22 2.29c-.26.04-.51.12-.74.23"></path></g></svg>