<svg xmlns="http://www.w3.org/2000/svg" width="32" height="32" id="finance"><g color="#000"><path style="isolation:auto;mix-blend-mode:normal" fill="#f05542" d="M560 2259.363v14h-4v4l-3.698-4h-12.558l2.47-3.892 13.67-.076v-10.033z" overflow="visible" transform="translate(-531 -2250.362)"></path><path style="isolation:auto;mix-blend-mode:normal" fill="#4bbfeb" d="M534 2255.362v16h5v5l4.623-5H558v-16z" overflow="visible" transform="translate(-531 -2250.362)"></path><g transform="translate(-330 -2220.362)"><circle cx="345" cy="2233.362" r="5.5" style="isolation:auto;mix-blend-mode:normal" fill="#fcd062" stroke="#f8b84e" stroke-linecap="round" stroke-linejoin="round" stroke-miterlimit="0" overflow="visible"></circle><path style="line-height:normal;text-indent:0;text-align:start;text-decoration-line:none;text-decoration-style:solid;text-decoration-color:#000;text-transform:none;block-progression:tb;isolation:auto;mix-blend-mode:normal" fill="#34485c" fill-rule="evenodd" d="M342.526 2229.362v.01h-.021v1h1.025c.933 0 1.406.442 1.576.99h-2.58v1h2.58c-.17.55-.641.993-1.576.993h-1.025v1h.295l3.05 3.007.702-.71-2.395-2.364c1.085-.227 1.783-1.035 1.975-1.926h1.363v-1h-1.363c-.078-.36-.246-.7-.48-1h1.843v-1h-4.969z" font-family="sans-serif" font-weight="400" overflow="visible"></path></g></g></svg>